<svg height="384pt" viewBox="-24 0 384 384" width="384pt" xmlns="http://www.w3.org/2000/svg"><path d="m265.695312 202.34375c1.921876-1.632812 3.433594-3.703125 4.410157-6.03125 4.125-9.898438 3.046875-21.128906-2.898438-30.046875-5.960937-8.929687-15.925781-14.265625-26.679687-14.265625h-120.28125c-35.351563 0-64.117188 28.710938-64.117188 64v96c0 35.046875 28.375 63.574219 63.398438 63.960938.121094 0 .242187.039062.359375.039062h120.640625c10.753906 0 20.71875-5.335938 26.671875-14.273438 5.945312-8.917968 7.023437-20.160156 2.890625-30.054687-.976563-2.328125-2.488282-4.390625-4.410156-6.023437-18.152344-15.410157-28.558594-37.871094-28.558594-61.640626.007812-23.777343 10.414062-46.246093 28.574218-61.664062zm-60.566406 61.65625c0 30.191406 12.03125 58.878906 33.277344 80h-118.160156c-17.710938 0-32.117188-14.351562-32.117188-32v-96c0-17.648438 14.40625-32 32.117188-32l118.167968-.007812c-21.253906 21.121093-33.285156 49.808593-33.285156 80.007812zm0 0"/><path d="m16 384c8.832031 0 16-7.167969 16-16v-160c0-27.480469 13.894531-52.726562 37.191406-67.550781 12.761719-8.144531 27.640625-12.449219 43.03125-12.449219h47.433594.03125.03125 17.289062.03125.03125 63.464844c10.152344 0 21.9375 3.167969 32.503906 8.769531 18.800782 9.726563 30.960938 25.125 30.960938 39.230469 0 8.832031 7.167969 16 16 16s16-7.167969 16-16c0-21.480469-12.449219-42.585938-33.0625-57.984375 6.292969-11.589844 9.726562-24.609375 9.726562-38.015625 0-44.113281-35.953124-80-80.152343-80-4.742188 0-9.472657.398438-14.046875 1.191406-.160156.023438-.304688.089844-.457032.121094-.457031.09375-.902343.230469-1.359374.367188-.496094.144531-.976563.296874-1.449219.488281-.464844.183593-.902344.40625-1.351563.640625-.421875.222656-.832031.457031-1.230468.710937-.441407.28125-.875.585938-1.289063.914063-.367187.285156-.703125.597656-1.039063.917968-.273437.257813-.570312.457032-.824218.726563-7.808594 8.425781-17.839844 14.160156-29.160156 16.625-7.550782 1.703125-16.199219 1.738281-24.023438-.023437-11.191406-2.441407-21.234375-8.183594-29.042969-16.601563-.070312-.078125-.160156-.125-.230469-.207031-.070312-.070313-.121093-.160156-.191406-.230469-.113281-.121094-.289062-.183594-.417968-.304687-.949219-.894532-1.992188-1.648438-3.085938-2.265626-.242188-.132812-.457031-.277343-.695312-.398437-1.296876-.640625-2.648438-1.097656-4.042969-1.367187-.101563-.023438-.199219-.089844-.308594-.105469-4.585937-.800781-9.304687-1.199219-14.058594-1.199219-44.191406 0-80.160156 35.886719-80.160156 80 0 15.871094 4.863281 31.304688 13.5625 44.367188-23.785156 21.089843-37.609375 51.234374-37.609375 83.632812v160c0 8.832031 7.167969 16 16 16zm212.480469-351.695312c1.34375-.113282 2.671875-.304688 4.03125-.304688 26.542969 0 48.152343 21.527344 48.152343 48 0 7.992188-2.136718 15.703125-5.871093 22.617188-8.695313-3.257813-17.59375-5.257813-26.273438-6.066407v-24.550781c0-8.832031-7.167969-16-16-16s-16 7.167969-16 16v24h-29.296875c-1.824218-5.078125-2.855468-10.472656-2.855468-16v-25.566406c.953124-.175782 1.953124-.265625 2.878906-.480469 15.554687-3.394531 29.691406-10.839844 41.234375-21.648437zm-124.273438-.304688c1.359375 0 2.679688.191406 4.023438.296875 11.546875 10.816406 25.664062 18.261719 41.128906 21.632813.976563.222656 2 .308593 2.992187.496093v25.574219c0 5.527344-1.039062 10.921875-2.855468 16h-29.289063v-24c0-8.832031-7.167969-16-16-16s-16 7.167969-16 16v26.566406c-8.277343 1.792969-16.296875 4.5625-23.933593 8.167969-5.273438-7.863281-8.226563-17.167969-8.226563-26.734375.007813-26.472656 21.609375-48 48.160156-48zm0 0"/></svg>