<svg height="384pt" viewBox="-72 0 384 384" width="384pt" xmlns="http://www.w3.org/2000/svg"><path d="m176.003906 368c0 8.832031 7.167969 16 16 16 8.832032 0 16-7.167969 16-16v-274.800781c18.617188-6.605469 32-24.34375 32-45.199219 0-26.472656-21.527344-48-48-48s-48 21.527344-48 48c0 20.855469 13.382813 38.59375 32 45.199219v26.800781h-160c-6.769531 0-12.800781 4.246094-15.074218 10.625-2.269532 6.367188-.292969 13.480469 4.9375 17.757812l170.136718 139.203126zm16-336c8.824219 0 16 7.175781 16 16s-7.175781 16-16 16c-8.824218 0-16-7.175781-16-16s7.175782-16 16-16zm-16 120v94.230469l-115.175781-94.230469zm0 0"/></svg>