<svg height="384pt" viewBox="0 0 384 384" width="384pt" xmlns="http://www.w3.org/2000/svg"><path d="m368 248h-19.9375l-12.6875-44.398438c-1.960938-6.867187-8.238281-11.601562-15.382812-11.601562v-42.824219c23.871093-13.855469 40-39.640625 40-69.175781 0-44.113281-35.886719-80-80-80-44.113282 0-80 35.886719-80 80 0 29.535156 16.128906 55.320312 40 69.175781v42.824219c-7.144532 0-13.425782 4.734375-15.382813 11.601562l-12.6875 44.398438h-59.921875v-40c0-8.832031-7.167969-16-16-16h-80c-8.832031 0-16 7.167969-16 16v40h-24c-8.832031 0-16 7.167969-16 16v104c0 8.832031 7.167969 16 16 16h352c8.832031 0 16-7.167969 16-16v-104c0-8.832031-7.167969-16-16-16zm-88-216c26.472656 0 48 21.527344 48 48s-21.527344 48-48 48-48-21.527344-48-48 21.527344-48 48-48zm-8 127.601562c2.632812.261719 5.296875.40625 8 .40625s5.367188-.144531 8-.40625v32.40625h-16zm-19.929688 64.398438h55.859376l6.855468 24h-69.578125zm-180.070312 0h48v24h-48zm280 128h-320v-72h303.945312c.015626 0 .03125.007812.046876.007812.015624 0 .039062-.007812.054687-.007812h15.953125zm0 0"/></svg>