<svg height="384pt" viewBox="-16 0 384 384" width="384pt" xmlns="http://www.w3.org/2000/svg"><path d="m318.992188 80.265625c-31.976563-48.546875-84.136719-80.265625-142.992188-80.265625-27.398438 0-53.34375 6.871094-76.488281 19.105469-.976563.421875-1.917969.941406-2.800781 1.566406-39.414063 21.800781-70.359376 59.273437-85.832032 104.886719-.023437.058594-.039062.113281-.054687.167968-.128907.378907-.25.761719-.367188 1.136719-.199219.59375-.425781 1.183594-.5625 1.792969-6.382812 19.847656-9.894531 41.152344-9.894531 63.34375 0 24.863281 4.398438 48.609375 12.320312 70.433594.199219.671875.421876 1.328125.710938 1.972656 17.296875 46.144531 50.578125 83.355469 92.3125 103.394531.214844.109375.433594.222657.65625.320313 21.464844 10.191406 45.128906 15.878906 70 15.878906 74.441406 0 138.183594-50.703125 163.871094-122.097656.160156-.390625.296875-.78125.433594-1.183594 7.527343-21.351562 11.695312-44.503906 11.695312-68.71875 0-40.785156-11.753906-78.617188-31.710938-109.753906-.386718-.6875-.816406-1.351563-1.296874-1.980469zm-22.566407 24.253906c14.855469 25.167969 23.574219 55.199219 23.574219 87.480469 0 18.152344-2.863281 35.542969-7.902344 51.824219-7.746094 2.742187-15.808594 4.175781-24.097656 4.175781-39.703125 0-72-32.296875-72-72s32.296875-72 72-72c2.886719 0 5.671875.199219 8.425781.519531zm-191.609375-51.414062c9.589844 8.949219 15.183594 21.414062 15.183594 34.894531 0 26.472656-21.527344 48-48 48-10.046875 0-19.566406-3.046875-27.585938-8.710938 12.523438-31.304687 33.808594-57.296874 60.402344-74.183593zm-57.640625 209.964843c7.457031-4.535156 15.960938-7.0625 24.824219-7.0625 26.472656 0 48 21.527344 48 48 0 10.976563-3.726562 21.417969-10.433594 29.816407-26.941406-15.65625-48.8125-40.488281-62.390625-70.753907zm128.824219 88.929688c-12.574219 0-24.710938-1.984375-36.351562-5.367188 7.976562-12.601562 12.351562-27.296874 12.351562-42.632812 0-44.113281-35.886719-80-80-80-12.367188 0-24.34375 2.886719-35.207031 8.230469-3.015625-12.878907-4.792969-26.308594-4.792969-40.230469 0-11.328125 1.097656-22.367188 3.121094-33.03125 11.238281 5.863281 23.765625 9.03125 36.878906 9.03125 44.113281 0 80-35.886719 80-80 0-18.28125-6.199219-35.441406-17.078125-49.28125 13.03125-4.320312 26.796875-6.71875 41.078125-6.71875 37.015625 0 70.703125 15.734375 96.238281 41.328125-49.871093 7.632813-88.238281 50.703125-88.238281 102.671875 0 57.34375 46.65625 104 104 104 2.816406 0 5.601562-.222656 8.382812-.449219-25.757812 43.578125-70.0625 72.449219-120.382812 72.449219zm0 0"/></svg>