<svg height="384pt" viewBox="0 -16 384 384" width="384pt" xmlns="http://www.w3.org/2000/svg"><path d="m336 168h-2.039062c1.328124-7.886719 2.039062-15.902344 2.039062-24 0-8.6875-.902344-17.152344-2.382812-25.414062-.074219-.824219-.175782-1.632813-.371094-2.417969-13.007813-66.121094-71.375-116.167969-141.246094-116.167969s-128.238281 50.046875-141.246094 116.175781c-.195312.785157-.296875 1.59375-.371094 2.417969-1.480468 8.253906-2.382812 16.71875-2.382812 25.40625 0 8.097656.710938 16.113281 2.039062 24h-2.039062c-26.472656 0-48 21.527344-48 48s21.527344 48 48 48h12.40625l5.378906 34c4.941406 31.289062 31.535156 54 63.214844 54h120.0625c30.082031 0 56.417969-21.359375 62.617188-50.792969l7.855468-37.207031h16.464844c26.472656 0 48-21.527344 48-48s-21.527344-48-48-48zm-70.128906 0 9.921875-32h27.808593c.183594 2.65625.398438 5.296875.398438 8 0 8.144531-.9375 16.167969-2.65625 24zm-183.214844 0c-1.71875-7.832031-2.65625-15.855469-2.65625-24 0-2.703125.214844-5.34375.40625-8h27.761719l9.800781 32zm68.777344 0-12.691406-41.433594 53.761718-36.734375 52.753906 36.625-12.890624 41.542969zm145.054687-64h-27.480469l-61.007812-42.359375v-28.359375c40.617188 5.847656 74.183594 33.488281 88.488281 70.71875zm-120.488281-70.71875v29.070312l-60.953125 41.648438h-27.535156c14.304687-37.230469 47.871093-64.871094 88.488281-70.71875zm104.375 261.328125c-3.101562 14.710937-16.261719 25.390625-31.304688 25.390625h-120.0625c-15.839843 0-29.136718-11.351562-31.609374-27l-4.589844-29h194.023437zm55.625-62.609375h-288c-8.824219 0-16-7.175781-16-16s7.175781-16 16-16h91.542969c.015625 0 .03125.007812.050781.007812.015625 0 .03125-.007812.046875-.007812h173.910156c.015625 0 .035157.007812.050781.007812.015626 0 .03125-.007812.046876-.007812h22.351562c8.824219 0 16 7.175781 16 16s-7.175781 16-16 16zm0 0"/></svg>