<svg height="384pt" viewBox="0 -16 384.00863 384" width="384pt" xmlns="http://www.w3.org/2000/svg"><path d="m144 224.011719h-16v-16c0-8.832031-7.167969-16-16-16s-16 7.167969-16 16v16h-16c-8.832031 0-16 7.167969-16 16s7.167969 16 16 16h16v16c0 8.832031 7.167969 16 16 16s16-7.167969 16-16v-16h16c8.832031 0 16-7.167969 16-16s-7.167969-16-16-16zm0 0"/><path d="m296.839844 185.699219-48 24c-7.902344 3.953125-11.105469 13.558593-7.160156 21.472656 2.808593 5.605469 8.457031 8.839844 14.328124 8.839844 2.40625 0 4.847657-.539063 7.144532-1.6875l48-24c7.902344-3.953125 11.105468-13.5625 7.160156-21.472657-3.960938-7.90625-13.585938-11.105468-21.472656-7.152343zm0 0"/><path d="m296.839844 241.699219-48 24c-7.902344 3.953125-11.105469 13.558593-7.160156 21.472656 2.808593 5.605469 8.457031 8.839844 14.328124 8.839844 2.40625 0 4.847657-.539063 7.144532-1.6875l48-24c7.902344-3.953125 11.105468-13.5625 7.160156-21.472657-3.960938-7.90625-13.585938-11.105468-21.472656-7.152343zm0 0"/><path d="m336 128.011719h-128v-21.226563c0-17.992187 12.121094-33.855468 29.480469-38.589844l134.734375-36.746093c8.519531-2.328125 13.554687-11.125 11.226562-19.648438-2.328125-8.519531-11.105468-13.566406-19.648437-11.222656l-134.738281 36.746094c-31.238282 8.519531-53.054688 37.085937-53.054688 69.460937v21.226563h-128c-26.472656 0-48 21.527343-48 48v128c0 26.472656 21.527344 48 48 48h288c26.472656 0 48-21.527344 48-48v-128c0-26.464844-21.527344-48-48-48zm16 176c0 8.824219-7.175781 16-16 16h-288c-8.824219 0-16-7.175781-16-16v-128c0-8.824219 7.175781-16 16-16h288c8.824219 0 16 7.175781 16 16zm0 0"/></svg>