<svg height="384pt" viewBox="0 0 384 384" width="384pt" xmlns="http://www.w3.org/2000/svg"><path d="m384 96.328125c0-54.914063-82.542969-96.328125-192-96.328125s-192 41.414062-192 96.328125c0 19.671875 10.640625 37.59375 29.265625 52.519531-19.042969 15.214844-29.265625 33.289063-29.265625 52.359375 0 39.671875 42.574219 72.738281 112 87.90625v46.992188c0 26.40625 21.527344 47.894531 48 47.894531h64c26.472656 0 48-21.488281 48-47.886719v-46.992187c69.441406-15.183594 112-48.242188 112-87.90625 0-19.070313-10.222656-37.144532-29.265625-52.367188 18.625-14.925781 29.265625-32.847656 29.265625-52.519531zm-192-64.328125c94.289062 0 160 33.902344 160 64.328125 0 12.839844-11.816406 26.273437-32.433594 37.542969-1.246094.480468-2.429687 1.113281-3.527344 1.898437-28.375 14.460938-71.792968 24.886719-124.039062 24.886719-52.257812 0-95.671875-10.433594-124.046875-24.894531-1.097656-.777344-2.265625-1.402344-3.503906-1.882813-20.632813-11.269531-32.449219-24.710937-32.449219-37.550781 0-30.425781 65.710938-64.328125 160-64.328125zm32 320h-64c-8.824219 0-16-7.128906-16-15.886719v-41.5625c15.480469 1.929688 31.535156 2.953125 48 2.953125 16.472656 0 32.527344-1.023437 48-2.945312v41.5625c0 8.75-7.175781 15.878906-16 15.878906zm128-150.792969c0 24.03125-41.550781 48.855469-98.847656 59.039063-38.480469 6.96875-83.769532 6.976562-122.34375-.007813-57.257813-10.167969-98.808594-35-98.808594-59.03125 0-11.335937 9.761719-23.550781 27.007812-34.191406 34 16.039063 80.367188 25.632813 132.992188 25.632813s98.992188-9.59375 132.992188-25.632813c17.246093 10.640625 27.007812 22.855469 27.007812 34.191406zm0 0"/><path d="m232 120.359375c8.832031 0 16-7.167969 16-16v-24.023437c0-8.832032-7.167969-16-16-16s-16 7.167968-16 16v24.023437c0 8.832031 7.167969 16 16 16zm0 0"/><path d="m152 120.359375c8.832031 0 16-7.167969 16-16v-24.09375c0-8.832031-7.167969-16-16-16s-16 7.167969-16 16v24.09375c0 8.832031 7.167969 16 16 16zm0 0"/></svg>