<svg height="384pt" viewBox="0 0 384 384" width="384pt" xmlns="http://www.w3.org/2000/svg"><path d="m192 0c-105.863281 0-192 86.128906-192 192s86.136719 192 192 192 192-86.128906 192-192-86.136719-192-192-192zm0 352c-88.222656 0-160-71.777344-160-160s71.777344-160 160-160 160 71.777344 160 160-71.777344 160-160 160zm0 0"/><path d="m272.792969 222.59375c-8.386719.695312-16.960938.671875-25.480469-.097656-51.664062-4.625-92.863281-36.96875-97.992188-76.886719-2.519531-19.738281 3.457032-38.855469 17.296876-55.3125 4.832031-5.753906 5.023437-14.097656.445312-20.050781-4.574219-5.964844-12.710938-7.933594-19.496094-4.726563-51.238281 24.082031-79.992187 69.207031-75.023437 117.761719 6.050781 59.222656 62.6875 106.375 134.671875 112.117188 5.015625.402343 10.023437.601562 15.015625.601562 24.523437 0 48.503906-4.808594 70.113281-14.136719 14.824219-6.398437 22.375-20.3125 18.800781-34.625-3.96875-15.796875-19.976562-26.199219-38.351562-24.644531zm-63.023438 40.910156c-55.671875-4.441406-100.976562-40.328125-105.394531-83.472656-1.765625-17.304688 2.777344-34.136719 12.570312-48.910156-.359374 6.152344-.160156 12.34375.640626 18.550781 7.015624 54.710937 60.367187 98.742187 126.863281 104.695313 10.046875.890624 20.175781.960937 30.117187.175781-19.964844 7.664062-42.253906 10.738281-64.796875 8.960937zm0 0"/></svg>