<svg height="384pt" viewBox="0 0 384 384.00682" width="384pt" xmlns="http://www.w3.org/2000/svg"><path d="m39.359375 71.246094c3.992187-7.878906.839844-17.503906-7.042969-21.503906-7.894531-3.992188-17.511718-.839844-21.503906 7.03125-17.046875 33.617187-13.75 73.402343 8.609375 103.816406l159.617187 216.90625c3.015626 4.09375 7.800782 6.511718 12.878907 6.511718s9.863281-2.417968 12.878906-6.511718l122.28125-166.160156c.046875-.066407.113281-.105469.160156-.167969l26.039063-35.441407 11.136718-15.136718c1.648438-2.238282 2.984376-4.605469 4.433594-6.933594.496094-.65625.925782-1.34375 1.316406-2.074219 16.53125-28.144531 18.363282-61.71875 4.304688-91.832031-16.207031-34.734375-49.414062-56.984375-88.832031-59.496094-4.78125-.3046872-9.695313-.3359372-14.503907-.09375-8.832031.421875-15.628906 7.925782-15.207031 16.75.433594 8.832032 7.9375 15.503906 16.761719 15.207032 3.613281-.175782 7.335938-.148438 10.925781.074218 27.542969 1.75 50.671875 17.121094 61.855469 41.085938 8.296875 17.777344 8.371094 37.34375.855469 54.722656h-308.820313c-7.867187-18.082031-7.457031-38.402344 1.855469-56.753906zm152.558594 269.777344-133.199219-181.015626h266.398438zm0 0"/><path d="m90.789062 33.351562c3.074219-.5625 6.242188-.945312 9.417969-1.152343 2.015625-.128907 4.046875-.191407 6.09375-.191407 29.417969 0 56.527344 13.527344 72.554688 36.191407 2.992187 4.238281 7.863281 6.769531 13.0625 6.769531s10.0625-2.523438 13.0625-6.761719c3.800781-5.367187 8.304687-10.320312 13.394531-14.710937 6.6875-5.777344 7.429688-15.882813 1.65625-22.570313-5.785156-6.679687-15.875-7.429687-22.5625-1.65625-1.902344 1.648438-3.757812 3.34375-5.535156 5.105469-22.144532-21.792969-52.894532-34.359375-85.625-34.359375-2.71875 0-5.4375.085937-8.117188.253906-4.425781.28125-8.839844.824219-13.144531 1.609375-8.695313 1.582032-14.457031 9.917969-12.863281 18.617188 1.582031 8.6875 9.941406 14.460937 18.605468 12.855468zm0 0"/></svg>