<svg height="384pt" viewBox="0 0 384 384" width="384pt" xmlns="http://www.w3.org/2000/svg"><path d="m376 239.375v-143.375c0-52.9375-43.0625-96-96-96h-176c-52.9375 0-96 43.0625-96 96v143.375c-5.191406 10.289062-8 21.226562-8 32.625 0 62.808594 84.335938 112 192 112 78.382812 0 144.359375-26.089844 174.472656-64.503906 5.605469-2.488282 9.527344-8.089844 9.527344-14.617188v-.253906c5.191406-10.289062 8-21.226562 8-32.625s-2.808594-22.335938-8-32.625zm-240-103.375c8.832031 0 16-7.167969 16-16v-24h24v64.398438c-29.128906 1.34375-56.214844 6.3125-80 14.175781v-62.574219c0-8.824219 7.175781-16 16-16h8v24c0 8.832031 7.167969 16 16 16zm96-40v24c0 8.832031 7.167969 16 16 16s16-7.167969 16-16v-24h8c8.824219 0 16 7.175781 16 16v62.574219c-23.785156-7.855469-50.871094-12.832031-80-14.175781v-64.398438zm-147.40625 117.40625c1.558594-.46875 3.039062-1.09375 4.359375-1.980469 12.976563-5.5625 27.648437-10.113281 43.542969-13.410156l14.703125 19.585937c.367187.488282.824219.855469 1.234375 1.285157.390625.417969.75.875 1.175781 1.234375.589844.511718 1.246094.902344 1.902344 1.320312.417969.261719.808593.574219 1.25.796875.78125.402344 1.605469.65625 2.4375.921875.367187.113282.710937.296875 1.082031.382813 1.222656.296875 2.472656.457031 3.726562.457031 1.59375 0 3.191407-.273438 4.753907-.753906.527343-.167969 1-.484375 1.519531-.710938.871094-.375 1.765625-.671875 2.589844-1.214844.167968-.113281.289062-.257812.449218-.367187.085938-.066406.191407-.082031.28125-.144531.320313-.242188.566407-.535156.863282-.792969.414062-.359375.832031-.710937 1.199218-1.105469.359376-.382812.664063-.789062.976563-1.207031.320313-.421875.648437-.832031.925781-1.277344.273438-.449219.496094-.90625.730469-1.378906.222656-.453125.457031-.910156.640625-1.390625.183594-.488281.308594-.984375.445312-1.480469.136719-.488281.273438-.976562.359376-1.472656.089843-.503906.121093-1.015625.160156-1.527344.042968-.511719.082031-1.015625.074218-1.527343-.007812-.519532-.082031-1.023438-.136718-1.535157-.0625-.511719-.113282-1.015625-.222656-1.519531-.113282-.523438-.289063-1.027344-.449219-1.53125-.160157-.488281-.304688-.964844-.511719-1.4375-.222656-.503906-.503906-.984375-.785156-1.480469-.191406-.335937-.320313-.6875-.535156-1.007812l-4.113282-6.175781c7.457032-.570313 15.035156-.960938 22.777344-.960938 7.894531 0 15.632812.398438 23.265625.984375l-4.066406 5.40625c-5.304688 7.066406-3.871094 17.097656 3.191406 22.402344 2.882813 2.167969 6.25 3.199219 9.59375 3.199219 4.855469 0 9.664063-2.207032 12.808594-6.398438l14.703125-19.59375c32.472656 6.734375 59.839844 18.734375 77.808594 33.742188l-42.34375 25.402343c-7.457032 4.488281-15.992188 6.855469-24.6875 6.855469h-152.9375c-10.320313 0-20.542969-3.40625-28.800782-9.59375l-27.933594-20.949219c8.476563-7.496093 19.359376-14.242187 31.992188-20.050781zm19.40625-181.40625h176c35.289062 0 64 28.710938 64 64v106.839844c-7.191406-5.414063-15.222656-10.425782-24-14.953125v-75.886719c0-26.472656-21.527344-48-48-48h-160c-26.472656 0-48 21.527344-48 48v75.886719c-8.777344 4.539062-16.808594 9.539062-24 14.953125v-106.839844c0-35.289062 28.710938-64 64-64zm88 320c-86.726562 0-160-36.632812-160-80 0-4.199219.878906-8.304688 2.199219-12.34375l27.136719 20.351562c13.761718 10.3125 30.808593 15.992188 48 15.992188h152.945312c14.488281 0 28.710938-3.9375 41.160156-11.398438l45.605469-27.371093c1.875 4.808593 2.953125 9.738281 2.953125 14.769531 0 43.367188-73.273438 80-160 80zm0 0"/></svg>