<svg height="384pt" viewBox="0 0 384 384" width="384pt" xmlns="http://www.w3.org/2000/svg"><path d="m331.753906 261.0625c17.8125-26.664062 28.246094-58.65625 28.246094-93.0625 0-92.640625-75.367188-168-168-168-92.640625 0-168 75.359375-168 168 0 34.390625 10.425781 66.375 28.222656 93.039062-10.664062 3.953126-20.503906 10.105469-28.863281 18.410157-15.0625 15.175781-23.359375 35.253906-23.359375 56.550781 0 26.472656 21.527344 48 48 48h32c26.472656 0 48-21.527344 48-48v-12.734375c19.742188 8.167969 41.34375 12.734375 64 12.734375s44.257812-4.566406 64-12.734375v12.734375c0 26.472656 21.527344 48 48 48h32c12.703125 0 24.734375-4.960938 34.03125-14.128906 9.007812-9.136719 13.96875-21.160156 13.96875-33.871094 0-34.34375-21.792969-63.617188-52.246094-74.9375zm-235.753906 74.9375c0 8.824219-7.175781 16-16 16h-32c-8.824219 0-16-7.175781-16-16 0-12.792969 5-24.863281 13.992188-33.929688 7.929687-7.871093 18.0625-12.664062 28.960937-13.796874 6.527344 6.351562 13.566406 12.160156 21.046875 17.398437zm-40-168c0-74.992188 61.007812-136 136-136s136 61.007812 136 136-61.007812 136-136 136-136-61.007812-136-136zm291.414062 179.238281c-3.117187 3.074219-7.175781 4.761719-11.414062 4.761719h-32c-8.824219 0-16-7.175781-16-16v-30.328125c7.480469-5.230469 14.527344-11.046875 21.046875-17.398437 24.105469 2.527343 42.953125 22.964843 42.953125 47.726562 0 4.246094-1.6875 8.296875-4.585938 11.238281zm0 0"/><path d="m232 72c-8.832031 0-16 7.167969-16 16v32c0 8.832031 7.167969 16 16 16s16-7.167969 16-16v-32c0-8.832031-7.167969-16-16-16zm0 0"/><path d="m112 144h-16c-8.832031 0-16 7.167969-16 16s7.167969 16 16 16h16c8.832031 0 16-7.167969 16-16s-7.167969-16-16-16zm0 0"/><path d="m304 160c0-8.832031-7.167969-16-16-16h-16c-8.832031 0-16 7.167969-16 16s7.167969 16 16 16h16c8.832031 0 16-7.167969 16-16zm0 0"/><path d="m152 136c8.832031 0 16-7.167969 16-16v-32c0-8.832031-7.167969-16-16-16s-16 7.167969-16 16v32c0 8.832031 7.167969 16 16 16zm0 0"/><path d="m192 160c-30.878906 0-56 25.121094-56 56s25.121094 56 56 56c30.871094 0 56-25.121094 56-56s-25.128906-56-56-56zm0 80c-13.230469 0-24-10.769531-24-24s10.769531-24 24-24 24 10.769531 24 24-10.769531 24-24 24zm0 0"/></svg>