<svg height="384pt" viewBox="0 -24 384 384" width="384pt" xmlns="http://www.w3.org/2000/svg"><path d="m232 188.113281c8.832031 0 16-7.167969 16-16v-24.761719c0-8.832031-7.167969-16-16-16s-16 7.167969-16 16v24.761719c0 8.832031 7.167969 16 16 16zm0 0"/><path d="m152 188.113281c8.832031 0 16-7.167969 16-16v-24.832031c0-8.832031-7.167969-16-16-16s-16 7.167969-16 16v24.832031c0 8.832031 7.167969 16 16 16zm0 0"/><path d="m225.921875 223.039062-16.226563 6.671876c-11.40625 4.671874-23.976562 4.671874-35.375 0l-16.242187-6.671876c-8.183594-3.382812-17.519531.546876-20.878906 8.714844-3.359375 8.167969.535156 17.519532 8.710937 20.878906l16.234375 6.671876c9.625 3.953124 19.734375 5.925781 29.847657 5.925781 10.113281 0 20.222656-1.972657 29.847656-5.925781l16.230468-6.671876c8.175782-3.359374 12.074219-12.710937 8.714844-20.878906-3.34375-8.167968-12.6875-12.097656-20.863281-8.714844zm0 0"/><path d="m312 118.105469v-19.9375c0-54.136719-43.0625-98.167969-96-98.167969h-48c-52.9375 0-96 44.03125-96 98.167969v19.9375c-41.921875 10.910156-72 49.480469-72 95.085937v24.648438c0 54.121094 43.0625 98.160156 96 98.160156h192c52.9375 0 96-44.039062 96-98.167969v-24.648437c0-45.597656-30.078125-84.175782-72-95.078125zm40 119.726562c0 36.488281-28.710938 66.167969-64 66.167969h-192c-35.289062 0-64-29.679688-64-66.167969v-24.648437c0-34.183594 24.769531-62.496094 57.625-65.832032 8.160156-.832031 14.375-7.703124 14.375-15.910156v-33.273437c0-36.488281 28.710938-66.167969 64-66.167969h48c35.289062 0 64 29.679688 64 66.167969v33.273437c0 8.207032 6.214844 15.085938 14.375 15.917969 32.855469 3.335937 57.625 31.640625 57.625 65.824219zm0 0"/></svg>