<svg height="384pt" viewBox="0 0 384.00157 384" width="384pt" xmlns="http://www.w3.org/2000/svg"><path d="m32.617188 239.128906c6.261718 80.886719 75.273437 144.871094 159.382812 144.871094 84.089844 0 153.082031-63.933594 159.375-144.785156.167969-.613282.363281-1.230469.457031-1.878906l32-219.023438c.992188-6.792969-2.457031-13.457031-8.574219-16.566406-6.113281-3.113282-13.527343-1.984375-18.449218 2.816406l-90.582032 88.574219-61.167968-86.382813c-3-4.234375-7.867188-6.753906-13.058594-6.753906s-10.054688 2.519531-13.054688 6.753906l-61.167968 86.382813-90.59375-88.574219c-4.910156-4.800781-12.335938-5.929688-18.445313-2.816406-6.113281 3.109375-9.5625 9.773437-8.570312 16.566406l32 219.023438c.089843.625.289062 1.199218.449219 1.792968zm77.390624-46.574218c3.160157 3.324218 6.464844 6.484374 9.992188 9.367187v25.277344c0 8.832031 7.167969 16 16 16s16-7.167969 16-16v-6.902344c12.648438 4.742187 26.128906 7.257813 40 7.257813 13.878906 0 27.367188-2.523438 40-7.25v6.894531c0 8.832031 7.167969 16 16 16s16-7.167969 16-16v-25.285157c3.535156-2.890624 6.839844-6.042968 9.992188-9.359374 31.488281 10.367187 46.007812 24.8125 46.007812 34.644531 0 18.992187-49.863281 46.578125-128 46.578125s-128-27.585938-128-46.578125c0-9.832031 14.511719-24.277344 46.007812-34.644531zm81.992188 159.445312c-49.871094 0-93.0625-28.015625-114.183594-68.703125 28.601563 14.039063 68.585938 22.480469 114.183594 22.480469 45.601562 0 85.585938-8.441406 114.183594-22.480469-21.117188 40.6875-64.3125 68.703125-114.183594 68.703125zm-83.183594-222.871094c3.351563 3.273438 7.992188 4.886719 12.632813 4.496094 4.664062-.425781 8.910156-2.863281 11.617187-6.6875l58.933594-83.25 58.945312 83.25c2.703126 3.824219 6.953126 6.261719 11.617188 6.6875 4.636719.433594 9.277344-1.222656 12.628906-4.496094l70.136719-68.574218-18.007813 123.246093c-13.28125-10.230469-31.597656-18.769531-54.382812-24.992187-.015625-.007813-.039062-.007813-.058594-.007813-.820312-.222656-1.664062-.335937-2.503906-.425781-2.023438-.214844-4.015625-.023438-5.902344.496094-.28125.082031-.558594.105468-.839844.203125-.550781.183593-1.070312.460937-1.601562.710937-.414062.191406-.839844.335938-1.238281.558594-.894531.511719-1.746094 1.105469-2.527344 1.785156-.089844.070313-.152344.167969-.242187.246094-.703126.632812-1.367188 1.320312-1.957032 2.074219-.019531.015625-.027344.023437-.042968.039062-4.871094 6.328125-10.636719 11.816407-17.253907 16.390625-13.632812 9.601563-29.808593 14.675782-46.785156 14.675782s-33.160156-5.074219-46.902344-14.761719c-6.503906-4.496094-12.265625-9.984375-17.136719-16.3125-.007812-.015625-.023437-.023438-.039062-.039063-.59375-.761718-1.257812-1.449218-1.96875-2.082031-.082031-.070313-.144531-.167969-.234375-.238281-.78125-.671875-1.621094-1.265625-2.519531-1.777344-.480469-.269531-1-.453125-1.503906-.679688-.4375-.191406-.863282-.429687-1.328126-.589843-.382812-.128907-.78125-.175781-1.175781-.273438-.613281-.160156-1.214843-.34375-1.847656-.425781-.0625-.007812-.128906 0-.191406-.007812-1.144531-.132813-2.3125-.117188-3.488281 0-.855469.089843-1.703126.203124-2.542969.425781-.023438.007812-.046875.007812-.066407.007812-22.773437 6.214844-41.09375 14.761719-54.382812 24.992188l-18.007812-123.25zm0 0"/></svg>