<svg id="Layer_1" enable-background="new 0 0 56 56" height="512" viewBox="0 0 56 56" width="512" xmlns="http://www.w3.org/2000/svg"><g id="_x37_7"><g><g><g><g enable-background="new"><g><g><g><path d="m24.8 48.8-1.1.6c-.2.1-.5.1-.9-.1l1.1-.6c.4.3.7.3.9.1z" fill="#c9cee2"/></g></g></g><g><g><g><path d="m21.9 46.4 1.1-.6c-.2.1-.4.4-.4.8 0 .8.6 1.8 1.3 2.2l-1.1.6c-.7-.4-1.3-1.4-1.3-2.2.1-.4.2-.7.4-.8z" fill="#c9cee2"/></g></g></g><g><g><g><path d="m24.9 38.2 1.1-.6v13.8l-1.1.6c-1.1-3.7-.8-8.5 0-13.8z" fill="#c9cee2"/></g></g></g><g><g><g><path d="m20.8 35.9 1.1-.7 4.1 2.4-1.1.6z" fill="#c9cee2"/></g></g></g><g><g><g><path d="m20.8 35.9 4.1 2.4v13.8l-4.1-2.4zm2 13.5c.7.4 1.3.1 1.3-.7s-.6-1.8-1.3-2.2-1.3-.1-1.3.7c.1.8.6 1.8 1.3 2.2" fill="#e3e7f0"/></g></g></g></g></g><g><g enable-background="new"><g><g><g><path d="m33.8 43.6-1.1.6c-.2.1-.5.1-.9-.1l1.1-.6c.3.3.7.3.9.1z" fill="#c9cee2"/></g></g></g><g><g><g><path d="m30.9 41.2 1.1-.6c-.2.1-.4.4-.4.8 0 .8.6 1.8 1.3 2.2l-1.1.6c-.7-.4-1.3-1.4-1.3-2.2 0-.4.2-.7.4-.8z" fill="#c9cee2"/></g></g></g><g><g><g><path d="m33.9 33 1.1-.6v13.8l-1.1.6c-.5-2.1-.2-8.2 0-13.8z" fill="#c9cee2"/></g></g></g><g><g><g><path d="m29.8 30.7 1.1-.7 4.1 2.4-1.1.6z" fill="#c9cee2"/></g></g></g><g><g><g><path d="m29.8 30.7 4.1 2.4v13.8l-4.1-2.4zm2 13.5c.7.4 1.3.1 1.3-.7s-.6-1.8-1.3-2.2-1.3-.1-1.3.7.6 1.8 1.3 2.2" fill="#e3e7f0"/></g></g></g></g></g><g><g enable-background="new"><g><g><g><path d="m38.3 17.9v16.8c0 1.5-1 3-3 4.2-4 2.3-10.5 2.3-14.5 0-2-1.2-3-2.7-3-4.2v-16.8c0 1.5 1 3.1 3 4.2 4 2.3 10.5 2.3 14.5 0 2-1.2 3-2.7 3-4.2z" fill="#4c5c75"/></g></g></g><g><g><g><path d="m35.2 13.7c4 2.3 4 6.1 0 8.4s-10.5 2.3-14.5 0-4-6.1 0-8.4 10.5-2.3 14.5 0z" fill="#4c5c75"/></g></g></g></g></g><g><g enable-background="new"><g><g><g><path d="m16.7 20.7v2.6l-.8-4.8v-2.6c1.8 1.6 2.6 3.2.8 4.8z" fill="#111d33"/></g></g></g><g><g><g><path d="m40.1 17.1v2.6l-2.1 4.7v-2.6c-1.9-1.5-.7-3.1 2.1-4.7z" fill="#111d33"/></g></g></g><g><g><g><path d="m22.7 24.2v2.6l-6-3.4v-2.6c3.2-.9 5.9-.9 6 3.4z" fill="#1d2943"/></g></g></g><g><g><g><path d="m31 24.6v2.6l-8.4-.4v-2.6c3.1-1.2 5.9-1.3 8.4.4z" fill="#111d33"/></g></g></g><g><g><g><path d="m37.9 21.8v2.6l-6.9 2.8v-2.6c1.8-3 4.2-3.7 6.9-2.8z" fill="#1d2943"/></g></g></g><g><g><g><path d="m36.5 12.7 3.6 4.4-2.2 4.7-6.9 2.8-8.3-.4-6-3.5-.7-4.8 4.8-4 8.1-1.3z" fill="#4c5c75"/></g></g></g></g></g><g><g enable-background="new"><g><g><g><path d="m38.8 12.3v4.8c0 1.6-1 3.2-3.1 4.4-4.2 2.4-11 2.4-15.3 0-2.1-1.2-3.2-2.8-3.2-4.5v-4.8c0 1.6 1.1 3.2 3.2 4.5 4.2 2.4 11.1 2.4 15.3 0 2.1-1.2 3.1-2.8 3.1-4.4z" fill="#f3f1fc"/></g></g></g><g><g><g><path d="m35.6 7.8c4.2 2.4 4.3 6.4 0 8.8-4.2 2.4-11 2.4-15.3 0-4.2-2.4-4.3-6.4 0-8.8s11.1-2.4 15.3 0z" fill="#50b069"/></g></g></g></g></g><g><g><g><g><path d="m29.5 38.7c-.2 0-.3-.1-.3-.3s.1-.3.3-.4c1.9-.2 3.6-.7 5-1.4 1-.6 1.7-1.3 2.1-2.1.1-.2.3-.2.4-.1.2.1.2.3.1.4-.5.9-1.3 1.7-2.4 2.3-1.4.9-3.2 1.4-5.2 1.6z" fill="#1d2943"/></g></g></g><g><g><g><path d="m29.5 36.2c-.2 0-.3-.1-.3-.3s.1-.3.3-.4c1.9-.2 3.6-.7 5-1.4 1-.6 1.7-1.3 2.1-2.1.1-.2.3-.2.4-.1.2.1.2.3.1.4-.5.9-1.3 1.7-2.4 2.3-1.4.9-3.2 1.4-5.2 1.6z" fill="#1d2943"/></g></g></g><g><g><g><path d="m29.5 33.7c-.2 0-.3-.1-.3-.3s.1-.3.3-.4c1.9-.2 3.6-.7 5-1.4 1-.6 1.7-1.3 2.1-2.1.1-.2.3-.2.4-.1.2.1.2.3.1.4-.5.9-1.3 1.7-2.4 2.3-1.4.9-3.2 1.4-5.2 1.6z" fill="#1d2943"/></g></g></g><g><g><g><path d="m29.5 31.2c-.2 0-.3-.1-.3-.3s.1-.3.3-.4c1.9-.2 3.6-.7 5-1.4 1-.6 1.7-1.3 2.1-2.1.1-.2.3-.2.4-.1.2.1.2.3.1.4-.5.9-1.3 1.7-2.4 2.3-1.4.9-3.2 1.4-5.2 1.6z" fill="#1d2943"/></g></g></g></g></g></g><g><path d="m38.6 11.1-2.9 3.8s-7.1 1.8-7.3 1.8c-.2.1-2.6-.2-3.1-.3-.6-.1-1.9-1.1-2-1.2s-5.7-4.6-5.7-4.6l.6-1.6h19.6z" fill="#50b069"/></g><g><g enable-background="new"><g><g><g><path d="m35 5.7c3.9 2.2 3.9 5.9 0 8.1s-10.1 2.2-14 0-3.9-5.9 0-8.1 10.1-2.3 14 0z" fill="#78e75a"/></g></g></g></g></g></g></svg>