<svg height="384pt" viewBox="0 -8 384 384" width="384pt" xmlns="http://www.w3.org/2000/svg"><path d="m368 120h-32v-72c0-26.472656-21.527344-48-48-48h-8c-17.71875 0-33.191406 9.679688-41.503906 24h-134.496094c-57.34375 0-104 46.65625-104 104v32c0 36.71875 19.183594 68.984375 48 87.496094v72.503906c0 26.472656 21.527344 48 48 48h8c26.472656 0 48-21.527344 48-48v-56h32v16c0 8.832031 7.167969 16 16 16s16-7.167969 16-16v-16h22.496094c8.3125 14.320312 23.785156 24 41.503906 24h8c26.472656 0 48-21.527344 48-48v-88h32c8.832031 0 16-7.167969 16-16s-7.167969-16-16-16zm-336 8c0-39.695312 32.304688-72 72-72h128v176h-128c-39.695312 0-72-32.304688-72-72zm88 192c0 8.824219-7.175781 16-16 16h-8c-8.824219 0-16-7.175781-16-16v-58.902344c7.71875 1.832032 15.726562 2.902344 24 2.902344h16zm184-80c0 8.824219-7.175781 16-16 16h-8c-8.824219 0-16-7.175781-16-16v-192c0-8.824219 7.175781-16 16-16h8c8.824219 0 16 7.175781 16 16zm0 0"/><path d="m192 208c8.832031 0 16-7.167969 16-16v-48c0-8.832031-7.167969-16-16-16s-16 7.167969-16 16v48c0 8.832031 7.167969 16 16 16zm0 0"/><path d="m136 208c8.832031 0 16-7.167969 16-16v-32c0-8.832031-7.167969-16-16-16s-16 7.167969-16 16v32c0 8.832031 7.167969 16 16 16zm0 0"/></svg>