<svg height="384pt" viewBox="0 0 384 384" width="384pt" xmlns="http://www.w3.org/2000/svg"><path d="m384 104c0-57.34375-46.65625-104-104-104-35.992188 0-69.273438 19.007812-88 48.753906-18.726562-29.753906-52.007812-48.753906-88-48.753906-57.34375 0-104 46.65625-104 104 0 35.992188 19.007812 69.265625 48.753906 88-29.746094 18.734375-48.753906 52.007812-48.753906 88 0 57.34375 46.65625 104 104 104 36 0 69.273438-19.007812 88-48.761719 18.726562 29.753907 52 48.761719 88 48.761719 57.34375 0 104-46.65625 104-104 0-35.992188-19.007812-69.265625-48.753906-88 29.746094-18.726562 48.753906-52.007812 48.753906-88zm-104-72c39.695312 0 72 32.296875 72 72 0 22.433594-10.65625 43.320312-27.777344 56.71875-11.808594-49.871094-51.070312-89.132812-100.941406-100.941406 13.398438-17.121094 34.285156-27.777344 56.71875-27.777344zm-88 264c-57.34375 0-104-46.65625-104-104s46.65625-104 104-104 104 46.65625 104 104-46.65625 104-104 104zm-160-192c0-39.703125 32.304688-72 72-72 22.433594 0 43.320312 10.65625 56.71875 27.777344-49.871094 11.808594-89.144531 51.0625-100.941406 100.941406-17.121094-13.398438-27.777344-34.277344-27.777344-56.71875zm72 248c-39.695312 0-72-32.296875-72-72 0-22.847656 10.472656-43.496094 27.753906-56.816406 11.78125 49.953125 51.109375 89.28125 101.0625 101.0625-13.320312 17.28125-33.976562 27.753906-56.816406 27.753906zm248-72c0 39.703125-32.304688 72-72 72-22.839844 0-43.496094-10.472656-56.816406-27.753906 49.953125-11.78125 89.28125-51.109375 101.0625-101.0625 17.28125 13.320312 27.753906 33.976562 27.753906 56.816406zm0 0"/><path d="m232 192.183594c8.832031 0 16-7.167969 16-16v-24.113282c0-8.832031-7.167969-16-16-16s-16 7.167969-16 16v24.113282c0 8.832031 7.167969 16 16 16zm0 0"/><path d="m152 192.183594c8.832031 0 16-7.167969 16-16v-24.175782c0-8.832031-7.167969-16-16-16s-16 7.167969-16 16v24.175782c0 8.832031 7.167969 16 16 16zm0 0"/><path d="m226.054688 225.144531-16.230469 6.496094c-11.503907 4.605469-24.167969 4.605469-35.65625 0l-16.230469-6.496094c-8.203125-3.25-17.511719.710938-20.800781 8.910157-3.28125 8.210937.703125 17.511718 8.910156 20.808593l16.234375 6.496094c9.574219 3.832031 19.648438 5.746094 29.710938 5.746094s20.136718-1.914063 29.710937-5.746094l16.234375-6.496094c8.207031-3.289062 12.191406-12.589843 8.910156-20.808593-3.28125-8.191407-12.589844-12.160157-20.792968-8.910157zm0 0"/></svg>