<svg height="384pt" viewBox="0 -32 384 384" width="384pt" xmlns="http://www.w3.org/2000/svg"><path d="m272 0h-160c-61.761719 0-112 50.238281-112 112v8c0 29.761719 11.742188 56.777344 30.742188 76.847656-4.765626 11.03125-7.277344 22.96875-7.277344 35.152344 0 48.519531 38.757812 88 86.398437 88h156.449219c23.007812 0 44.726562-9.199219 61.214844-25.96875 16.242187-16.703125 25.175781-38.734375 25.175781-62.03125 0-10.28125-1.78125-20.167969-5.128906-29.585938 22.328125-20.484374 36.425781-49.796874 36.425781-82.414062v-8c0-61.753906-50.238281-112-112-112zm48.710938 232c0 14.921875-5.726563 29.03125-16.0625 39.65625-10.359376 10.535156-23.976563 16.34375-38.335938 16.34375h-156.449219c-30 0-54.398437-25.128906-54.398437-56 0-4.878906.6875-9.679688 1.894531-14.328125 16.183594 9.089844 34.800781 14.328125 54.640625 14.328125h160c17.039062 0 33.136719-3.9375 47.609375-10.769531.671875 3.511719 1.101563 7.089843 1.101563 10.769531zm-179.199219-64c0-26.472656 20.894531-48 46.578125-48 25.679687 0 46.574218 21.527344 46.574218 48 0 11.902344-4.296874 23.265625-11.902343 32h-69.347657c-7.605468-8.726562-11.902343-20.097656-11.902343-32zm210.488281-48c0 44.113281-35.886719 80-80 80h-11.9375c4.28125-9.984375 6.609375-20.855469 6.609375-32 0-44.113281-35.246094-80-78.574219-80s-78.578125 35.886719-78.578125 80c0 11.144531 2.320313 22.015625 6.609375 32h-4.128906c-44.113281 0-80-35.886719-80-80v-8c0-44.113281 35.886719-80 80-80h160c44.113281 0 80 35.886719 80 80zm0 0"/></svg>