<svg height="384pt" viewBox="0 0 384 384" width="384pt" xmlns="http://www.w3.org/2000/svg"><path d="m324 0h-264c-33.089844 0-60 26.910156-60 60v8c0 28.976562 20.648438 53.214844 48 58.792969v241.207031c0 8.832031 7.167969 16 16 16h256c8.832031 0 16-7.167969 16-16v-241.207031c27.351562-5.578125 48-29.816407 48-58.792969v-8c0-33.089844-26.910156-60-60-60zm-244 352v-224h224v224zm272-284c0 15.441406-12.558594 28-28 28h-264c-15.441406 0-28-12.558594-28-28v-8c0-15.441406 12.558594-28 28-28h264c15.441406 0 28 12.558594 28 28zm0 0"/><path d="m256 152c-8.832031 0-16 7.167969-16 16v144h-16c-8.832031 0-16 7.167969-16 16s7.167969 16 16 16h32c8.832031 0 16-7.167969 16-16v-160c0-8.832031-7.167969-16-16-16zm0 0"/></svg>