<svg height="384pt" viewBox="0 0 384 384" width="384pt" xmlns="http://www.w3.org/2000/svg"><path d="m336 0h-288c-26.472656 0-48 21.527344-48 48v288c0 26.472656 21.527344 48 48 48h288c26.472656 0 48-21.527344 48-48v-288c0-26.464844-21.527344-48-48-48zm16 336c0 8.824219-7.175781 16-16 16h-288c-8.824219 0-16-7.175781-16-16v-288c0-8.824219 7.175781-16 16-16h288c8.824219 0 16 7.175781 16 16zm0 0"/><path d="m192 280c-8.832031 0-16 7.167969-16 16v16c0 8.832031 7.167969 16 16 16s16-7.167969 16-16v-16c0-8.832031-7.167969-16-16-16zm0 0"/><path d="m192 56c-8.832031 0-16 7.167969-16 16v160c0 8.832031 7.167969 16 16 16s16-7.167969 16-16v-160c0-8.832031-7.167969-16-16-16zm0 0"/></svg>