<svg height="383pt" viewBox="-32 0 383 383.88397" width="383pt" xmlns="http://www.w3.org/2000/svg"><path d="m141.957031 383.882812c6.65625 0 12.742188-1.269531 18.246094-3.582031 5.503906 2.3125 11.59375 3.582031 18.25 3.582031 26.726563 0 61.375-18.167968 92.933594-50.824218 45.472656-47.246094 61.539062-101.757813 37.386719-126.796875-7.625-7.914063-18.335938-12.097657-30.96875-12.097657-.007813 0-.015626 0-.023438 0-27.023438.007813-62.601562 19.535157-92.816406 50.929688-3.058594 3.148438-5.945313 6.375-8.769532 9.621094v-63.894532c63.050782-7.90625 112.007813-61.726562 112.007813-126.878906 0-19.257812-4.160156-37.722656-12.359375-54.898437-.070312-.152344-.183594-.277344-.261719-.429688-.25-.488281-.554687-.945312-.859375-1.410156-.300781-.472656-.613281-.925781-.957031-1.359375-.105469-.128906-.175781-.28125-.289063-.40625-.207031-.242188-.457031-.410156-.671874-.632812-.417969-.425782-.839844-.839844-1.296876-1.214844-.375-.304688-.769531-.578125-1.160156-.84375-.464844-.308594-.917968-.605469-1.40625-.871094-.433594-.230469-.863281-.421875-1.3125-.605469-.511718-.21875-1.015625-.417969-1.542968-.578125-.441407-.136718-.882813-.230468-1.328126-.328125-.570312-.121093-1.128906-.222656-1.714843-.2890622-.429688-.046875-.863281-.0546876-1.292969-.0625-.59375-.01562505-1.179688-.00781255-1.769531.046875-.457031.0429682-.902344.1210942-1.359375.2031252-.554688.09375-1.089844.207031-1.632813.359375-.511719.144531-1.015625.34375-1.511719.542968-.320312.128907-.648437.191407-.960937.34375-.160156.082032-.289063.191407-.449219.273438-.46875.246094-.917968.542969-1.375.839844-.472656.304687-.933594.605468-1.359375.957031-.136719.113281-.289062.179687-.414062.296875l-90.714844 78.863281-90.695313-78.871093c-.128906-.109376-.28125-.183594-.414062-.289063-.425781-.34375-.882812-.644531-1.34375-.949219-.464844-.304687-.929688-.609375-1.410156-.855468-.152344-.082032-.273438-.183594-.433594-.265626-.292969-.144531-.597656-.207031-.902344-.328124-.535156-.214844-1.070312-.421876-1.625-.582032-.496094-.144531-.984375-.242187-1.480468-.328125-.511719-.097656-1.023438-.1874998-1.535157-.2265622-.527343-.04687505-1.054687-.04687505-1.582031-.03906255-.496094.00781255-.992188.02343755-1.488281.07812495-.519531.0585938-1.023438.1523438-1.535157.2578128-.503906.105468-.992187.214844-1.488281.367187-.480469.152344-.945312.335938-1.417969.527344-.480468.203125-.960937.410156-1.421874.664063-.457032.25-.898438.53125-1.328126.824218-.417968.28125-.832031.570313-1.226562.890625-.4375.359375-.847656.765625-1.246094 1.175781-.226562.230469-.488281.414063-.703125.65625-.113281.125-.1875.277344-.296875.414063-.34375.417969-.640625.871094-.945312 1.335937-.3125.472657-.617188.9375-.871094 1.433594-.082031.144532-.183594.269532-.257812.421875-8.191407 17.144531-12.351563 35.617188-12.351563 54.890625 0 65.152344 48.960937 118.972656 112 126.886719v63.894531c-2.808594-3.238281-5.695313-6.445312-8.734375-9.582031-30.242188-31.425781-65.816406-50.953125-92.839844-50.96875-.007812 0-.015625 0-.03125 0-12.632812 0-23.335937 4.183594-30.96875 12.097656-24.152344 25.039063-8.074218 79.550781 37.414063 126.824219 31.546875 32.628906 66.183593 50.789062 92.914062 50.789062zm66.039063-116.550781c27.351562-28.425781 54.777344-41.152343 69.808594-41.160156 2.609374 0 6.101562.398437 7.933593 2.3125 7.121094 7.375.363281 43.144531-37.390625 82.367187-30.632812 31.703126-59.488281 42.273438-72.152344 40.9375v-39.808593c7.050782-14.832031 18.136719-30.550781 31.800782-44.648438zm-143.792969-203.390625c0-6.953125.761719-13.753906 2.183594-20.378906l83.3125 72.449219c3.015625 2.617187 6.761719 3.929687 10.503906 3.929687 3.746094 0 7.488281-1.3125 10.496094-3.929687l83.3125-72.441407c1.433593 6.625 2.191406 13.417969 2.191406 20.371094 0 52.933594-43.0625 96-96 96-52.933594 0-96-43.066406-96-96zm-29.542969 164.535156c1.839844-1.90625 5.328125-2.304687 7.9375-2.304687h.007813c15.039062.007813 42.453125 12.734375 69.839843 41.199219 13.558594 13.992187 24.710938 29.65625 31.75 44.433594v39.984374c-12.648437 1.335938-41.503906-9.234374-72.128906-40.921874-37.757812-39.246094-44.519531-75.015626-37.40625-82.390626zm0 0"/></svg>