<svg id="Layer_1" enable-background="new 0 0 56 56" height="512" viewBox="0 0 56 56" width="512" xmlns="http://www.w3.org/2000/svg"><g id="_x31_39"><g><g><g enable-background="new"><g><g><g><path d="m24.9 48.9-1.1.6c-.2.1-.5.1-.9-.1l1.1-.6c.3.2.6.2.9.1z" fill="#c9cee2"/></g></g></g><g><g><g><path d="m22 46.4 1.1-.6c-.2.1-.4.4-.4.8 0 .8.6 1.8 1.3 2.2l-1.1.6c-.7-.4-1.3-1.4-1.3-2.2 0-.4.2-.6.4-.8z" fill="#c9cee2"/></g></g></g><g><g><g><path d="m20.9 36 1.1-.6 4 2.3-1.1.7z" fill="#c9cee2"/></g></g></g><g><g><g><path d="m20.9 36 4.1 2.3c1.1 3.7.7 8.5 0 13.6l-4.1-2.3zm2 13.4c.7.4 1.3.1 1.3-.7s-.6-1.8-1.3-2.2-1.3-.1-1.3.7.6 1.8 1.3 2.2" fill="#e3e7f0"/></g></g></g></g></g><g><g enable-background="new"><g><g><g><path d="m33.7 43.7-1.1.6c-.2.1-.5.1-.9-.1l1.1-.6c.4.2.7.2.9.1z" fill="#c9cee2"/></g></g></g><g><g><g><path d="m30.9 41.3 1.1-.6c-.2.1-.4.4-.4.8 0 .8.6 1.8 1.3 2.2l-1.1.6c-.7-.4-1.3-1.4-1.3-2.2 0-.4.1-.7.4-.8z" fill="#c9cee2"/></g></g></g><g><g><g><path d="m29.8 30.9 1-.7 4.1 2.4-1.1.6z" fill="#c9cee2"/></g></g></g><g><g><g><path d="m29.8 30.9 4.1 2.3c.7 5.1.9 9.9 0 13.6l-4.1-2.3zm2 13.4c.7.4 1.3.1 1.3-.7s-.6-1.8-1.3-2.2-1.3-.1-1.3.7.6 1.8 1.3 2.2" fill="#e3e7f0"/></g></g></g></g></g><g><g enable-background="new"><g><g><g><path d="m33.8 33.2 1.1-.6v13.6l-1.1.6z" fill="#c9cee2"/></g></g></g><g><g><g><path d="m24.9 38.4 1.1-.7v13.7l-1.1.6z" fill="#c9cee2"/></g></g></g><g><g><g><path d="m38.2 18.2v16.7c0 1.5-1 3-3 4.1-4 2.3-10.4 2.3-14.4 0-2-1.2-3-2.7-3-4.2v-16.7c0 1.5 1 3 3 4.2 4 2.3 10.4 2.3 14.4 0 2-1.1 3-2.6 3-4.1z" fill="#4c5c75"/></g></g></g><g><g><g><path d="m35.2 14c4 2.3 4 6 0 8.3s-10.4 2.3-14.4 0-4-6 0-8.3 10.4-2.3 14.4 0z" fill="#4c5c75"/></g></g></g></g></g><g><g enable-background="new"><g><g><g><path d="m16.8 21v2.6l-.8-4.8v-2.6c1.3 1.6 2.1 3.2.8 4.8z" fill="#ffd475"/></g></g></g><g><g><g><path d="m40 17.4v2.6l-2.1 4.7v-2.6c-.2-1.7.5-3.3 2.1-4.7z" fill="#ffd475"/></g></g></g><g><g><g><path d="m22.7 24.4v2.6l-5.9-3.4v-2.6c2.7.6 4.9 1.6 5.9 3.4z" fill="#ffb961"/></g></g></g><g><g><g><path d="m31 24.8v2.6l-8.3-.4v-2.6c3.6-1.3 6.7-1.8 8.3.4z" fill="#f9a83d"/></g></g></g><g><g><g><path d="m37.8 21v3.6l-6.8 2.8v-2.6z" fill="#ffb961"/></g></g></g><g><g><g><path d="m36.4 13 3.6 4.4-2.2 4.6-6.8 2.8-8.3-.4-5.9-3.4-.7-4.8 4.7-4 8-1.2z" fill="#ffdd95"/></g></g></g></g></g><g><g enable-background="new"><g><g><g><path d="m38.7 12.6v4.8c0 1.6-1 3.2-3.1 4.4-4.2 2.4-10.9 2.4-15.1 0-2.1-1.2-3.2-2.8-3.2-4.4v-4.8c0 1.6 1 1.8 3.2 3 4.2 2.4 11 2.4 15.1 0 2.1-1.2 3.1-1.4 3.1-3z" fill="#1d2943"/></g></g></g><g><g><g><path d="m35.6 8.2c4.2 2.4 4.2 6.3 0 8.8s-10.9 2.4-15.1 0-4.2-6.3 0-8.8 10.9-2.4 15.1 0z" fill="#4c5c75"/></g></g></g></g></g><g><g enable-background="new"><g><g><g><path d="m37.3 9.4v2.7c0 1.4-.9 2.7-2.7 3.8-3.6 2.1-9.5 2.1-13.2 0-1.8-1.1-2.8-2.5-2.8-3.8v-2.7c0 1.4.9-.5 2.8.6 3.7 2.1 9.6 2.1 13.2 0 1.8-1.1 2.7.8 2.7-.6z" fill="#df3260"/></g></g></g><g><g><g><path d="m34.6 5.6c3.7 2.1 3.7 5.5 0 7.6-3.6 2.1-9.5 2.1-13.2 0s-3.7-5.5 0-7.6c3.6-2.1 9.5-2.1 13.2 0z" fill="#f45170"/></g></g></g></g></g><g><g><g><g><path d="m29.5 38.8c-.2 0-.3-.1-.3-.3s.1-.3.3-.4c1.9-.2 3.6-.7 4.9-1.4 1-.6 1.7-1.3 2.1-2.1.1-.2.3-.2.4-.1.2.1.2.3.1.4-.4.9-1.3 1.7-2.4 2.3-1.3.9-3.1 1.5-5.1 1.6z" fill="#1d2943"/></g></g></g><g><g><g><path d="m29.5 36.3c-.2 0-.3-.1-.3-.3s.1-.3.3-.4c1.9-.2 3.6-.7 4.9-1.4 1-.6 1.7-1.3 2.1-2.1.1-.1.3-.1.5-.1.2.1.2.3.1.4-.4.9-1.3 1.7-2.4 2.3-1.4.9-3.2 1.5-5.2 1.6z" fill="#1d2943"/></g></g></g><g><g><g><path d="m29.5 33.9c-.2 0-.3-.1-.3-.3s.1-.3.3-.4c1.9-.2 3.6-.7 4.9-1.4 1-.6 1.7-1.3 2.1-2.1.1-.2.3-.2.4-.1.2.1.2.3.1.4-.4.9-1.3 1.7-2.4 2.3-1.3.9-3.1 1.4-5.1 1.6z" fill="#1d2943"/></g></g></g><g><g><g><path d="m29.5 31.4c-.2 0-.3-.1-.3-.3s.1-.3.3-.4c1.9-.2 3.6-.7 4.9-1.4 1-.6 1.7-1.3 2.1-2.1.1-.2.3-.2.4-.1.2.1.2.3.1.4-.4.9-1.3 1.7-2.4 2.3-1.3.9-3.1 1.4-5.1 1.6z" fill="#1d2943"/></g></g></g></g></g><g><path d="m21.4 19.1c1.2 0 2.2 1 2.2 2.3 0-1.3 1-2.3 2.2-2.3-1.2 0-2.2-1-2.2-2.3-.1 1.2-1 2.3-2.2 2.3z" fill="#f8f9fe"/></g></g></svg>