<svg height="384pt" viewBox="0 0 384 384" width="384pt" xmlns="http://www.w3.org/2000/svg"><path d="m272 0h-160c-61.761719 0-112 50.238281-112 112v160c0 61.761719 50.238281 112 112 112h160c61.761719 0 112-50.238281 112-112v-160c0-61.761719-50.238281-112-112-112zm80 272c0 44.113281-35.886719 80-80 80h-160c-44.113281 0-80-35.886719-80-80v-160c0-44.113281 35.886719-80 80-80h160c44.113281 0 80 35.886719 80 80zm0 0"/><path d="m118.929688 73.574219c-5.53125-2.652344-12.121094-1.917969-16.921876 1.929687l-40 32c-6.902343 5.519532-8.023437 15.585938-2.503906 22.488282 5.511719 6.894531 15.59375 8.023437 22.488282 2.496093l14.007812-11.199219v166.710938c0 8.832031 7.167969 16 16 16s16-7.167969 16-16v-200c0-6.152344-3.519531-11.761719-9.070312-14.425781zm0 0"/><path d="m224 136c-8.832031 0-16 7.167969-16 16v120h-24v-120c0-8.832031-7.167969-16-16-16s-16 7.167969-16 16v120c0 17.648438 14.351562 32 32 32h24c17.648438 0 32-14.351562 32-32v-120c0-8.832031-7.167969-16-16-16zm0 0"/><path d="m312 136h-32c-8.832031 0-16 7.167969-16 16v136c0 8.832031 7.167969 16 16 16s16-7.167969 16-16v-72h16c8.832031 0 16-7.167969 16-16v-48c0-8.832031-7.167969-16-16-16zm0 0"/></svg>