<svg height="384pt" viewBox="0 0 384.01916 384" width="384pt" xmlns="http://www.w3.org/2000/svg"><path d="m352.039062 103.617188c-.335937 13.503906-4.921874 26.648437-13.25 37.992187-.015624.015625-.03125.03125-.046874.046875l-20.632813 28.082031-27.054687 36.792969c-5.242188 7.117188-3.71875 17.125 3.398437 22.367188 2.847656 2.101562 6.175781 3.109374 9.472656 3.109374 4.914063 0 9.769531-2.253906 12.898438-6.511718l10.492187-14.269532c.019532-.015624.035156-.03125.050782-.058593l17.421874-23.710938 19.753907-26.863281c12.238281-16.65625 18.976562-36.089844 19.472656-56.183594.214844-8.832031-6.769531-16.167968-15.59375-16.390625-9.152344-.1875-16.175781 6.765625-16.382813 15.597657zm0 0"/><path d="m179.175781 377.496094c3.015625 4.097656 7.796875 6.511718 12.878907 6.511718 5.078124 0 9.863281-2.414062 12.878906-6.511718l64.777344-88c5.238281-7.117188 3.71875-17.132813-3.402344-22.367188-7.132813-5.230468-17.132813-3.710937-22.367188 3.402344l-35.886718 48.75v-254.71875c16.273437-20.402344 41.863281-32.554688 69.617187-32.554688 2.046875 0 4.078125.066407 6.085937.195313 19.207032 1.222656 36.074219 8.832031 48.753907 22 6.132812 6.367187 16.253906 6.558594 22.613281.429687 6.371094-6.128906 6.5625-16.253906.433594-22.625-18.046875-18.75-42.832032-30.023437-69.777344-31.742187-2.671875-.1679688-5.390625-.2578125-8.109375-.2578125-32.722656 0-63.488281 12.5781255-85.617187 34.3554685-22.136719-21.785156-52.894532-34.3554685-85.617188-34.3554685-2.71875 0-5.4375.0898437-8.121094.2578125-39.40625 2.511719-72.605468 24.753906-88.820312 59.496094-15.578125 33.375-11.824219 71.070312 10.054687 100.832031zm-140.679687-304.199219c11.183594-23.976563 34.308594-39.335937 61.847656-41.085937 2.015625-.128907 4.046875-.191407 6.09375-.191407 27.753906 0 53.34375 12.15625 69.617188 32.550781v254.710938l-130.71875-177.640625c-14.832032-20.183594-17.394532-45.734375-6.839844-68.34375zm0 0"/></svg>