<svg height="384pt" viewBox="0 0 384 384" width="384pt" xmlns="http://www.w3.org/2000/svg"><path d="m320 114.894531v-50.894531c0-8.832031-7.167969-16-16-16h-23.441406l-13-19.503906c-11.894532-17.839844-31.796875-28.496094-53.246094-28.496094h-38.3125c-8.832031 0-16 7.167969-16 16s7.167969 16 16 16h38.3125c10.71875 0 20.671875 5.328125 26.625 14.246094l1.167969 1.753906h-2.105469c-8.832031 0-16 7.167969-16 16v50.960938c-35.488281 16.925781-60.664062 51.902343-63.59375 93.039062h-37.109375c3.039063-7.511719 4.703125-15.625 4.703125-24 0-35.289062-28.710938-64-64-64s-64 28.710938-64 64c0 14.808594 5.175781 28.800781 14.199219 40-9.023438 11.199219-14.199219 25.191406-14.199219 40 0 35.289062 28.710938 64 64 64s64-28.710938 64-64c0-8.375-1.664062-16.488281-4.703125-24h39.289063c5.316406 24.449219 18.652343 46.191406 37.613281 62.007812-.078125.65625-.199219 1.3125-.199219 1.992188v32c0 26.472656 21.527344 48 48 48h24c5.414062 0 10.777344-1.03125 15.894531-2.839844 5.042969 1.808594 10.449219 2.839844 16.105469 2.839844h24c26.472656 0 48-21.527344 48-48 0-17.761719-9.710938-33.257812-24.078125-41.558594 20.148437-20.5625 32.078125-48.53125 32.078125-78.441406 0-43.542969-25.351562-82.824219-64-101.105469zm-64-34.894531h32v25.230469c-5.265625-.757813-10.59375-1.230469-16-1.230469-5.449219 0-10.761719.519531-16 1.28125zm-192 216c-17.648438 0-32-14.351562-32-32 0-10.761719 5.359375-20.71875 14.34375-26.648438 0 0 0 0 .007812-.007812.886719-.582031 1.726563-1.265625 2.496094-2.03125.769532-.769531 1.441406-1.601562 2.023438-2.488281l.007812-.007813c.058594-.082031.082032-.167968.136719-.257812.511719-.804688.96875-1.648438 1.320313-2.519532.191406-.472656.296874-.949218.441406-1.429687.152344-.511719.34375-1.007813.445312-1.53125.105469-.527344.121094-1.0625.167969-1.589844.050781-.496093.128906-.992187.128906-1.488281s-.078125-.992188-.128906-1.488281c-.046875-.535157-.0625-1.0625-.167969-1.589844-.101562-.523437-.285156-1.027344-.445312-1.53125-.144532-.480469-.25-.957031-.441406-1.429687-.359376-.882813-.808594-1.714844-1.320313-2.519532-.046875-.082031-.078125-.167968-.136719-.257812l-.007812-.007813c-.582032-.886719-1.261719-1.71875-2.03125-2.488281-.761719-.757812-1.59375-1.429688-2.464844-2.015625-.007812-.007813-.015625-.015625-.023438-.023437-8.992187-5.929688-14.351562-15.894532-14.351562-26.648438 0-17.648438 14.351562-32 32-32s32 14.351562 32 32c0 9.464844-4.160156 18.3125-11.28125 24.34375-7.261719 1.511719-12.71875 7.945312-12.71875 15.65625s5.457031 14.144531 12.71875 15.65625c7.121094 6.03125 11.28125 14.871094 11.28125 24.34375 0 17.648438-14.351562 32-32 32zm168 40v-16h24v16c0 5.617188 1.023438 10.984375 2.800781 16h-10.800781c-8.824219 0-16-7.175781-16-16zm96 16h-24c-8.824219 0-16-7.175781-16-16v-16h22.433594c.015625 0 .03125.007812.054687.007812.023438 0 .046875-.007812.070313-.007812h17.441406c8.824219 0 16 7.175781 16 16s-7.175781 16-16 16zm-21.382812-64h-69.265626c-25.519531-12.257812-42.742187-36.953125-45.105468-65.464844-.191406-2.152344-.246094-4.320312-.246094-6.535156 0-44.113281 35.886719-80 80-80 9.199219 0 18.152344 1.535156 26.6875 4.617188 12.257812 4.3125 22.9375 11.453124 31.480469 20.519531-5.945313 2.335937-10.167969 8.09375-10.167969 14.863281v16c0 8.832031 7.167969 16 16 16 6.207031 0 11.519531-3.566406 14.175781-8.734375 1.167969 5.429687 1.824219 11.023437 1.824219 16.734375 0 30.847656-17.777344 58.710938-45.382812 72zm0 0"/><path d="m280 160c-8.832031 0-16 7.167969-16 16v16c0 8.832031 7.167969 16 16 16s16-7.167969 16-16v-16c0-8.832031-7.167969-16-16-16zm0 0"/></svg>