<svg height="384pt" viewBox="0 0 384.10619 384" width="384pt" xmlns="http://www.w3.org/2000/svg"><path d="m179.183594 377.542969c3.015625 4.09375 7.796875 6.511719 12.878906 6.511719 5.078125 0 9.863281-2.417969 12.878906-6.511719l122.28125-166.160157c.046875-.066406.113282-.105468.160156-.167968l26.039063-35.441406 11.136719-15.136719c21.871094-29.757813 25.632812-67.457031 10.054687-100.832031-16.207031-34.734376-49.414062-56.984376-88.824219-59.496094 0 0 0 0-.007812 0-2.671875-.167969-5.390625-.2539065-8.109375-.2539065-32.722656 0-63.488281 12.5742185-85.617187 34.3515625-22.136719-21.785156-52.894532-34.3515625-85.617188-34.3515625-2.71875 0-5.4375.0859375-8.121094.2539065-39.40625 2.511718-72.605468 24.753906-88.820312 59.496094-15.578125 33.375-11.824219 71.074218 10.054687 100.832031zm-140.679688-304.203125c11.183594-23.976563 34.308594-39.335938 61.847656-41.085938 2.015626-.128906 4.046876-.191406 6.09375-.191406 29.417969 0 56.527344 13.527344 72.554688 36.191406 2.992188 4.238282 7.863281 6.765625 13.0625 6.765625s10.070312-2.519531 13.0625-6.765625c16.023438-22.664062 43.144531-36.191406 72.554688-36.191406 2.046874 0 4.078124.0625 6.09375.191406 27.535156 1.757813 50.664062 17.121094 61.847656 41.085938 10.546875 22.601562 7.992187 48.128906-6.824219 68.3125-.015625.015625-.03125.03125-.046875.046875l-9.238281 12.570312-137.449219 186.800781-146.71875-199.386718c-14.832031-20.183594-17.394531-45.734375-6.839844-68.34375zm0 0"/></svg>