<svg height="383pt" viewBox="0 0 383.99753 383" width="383pt" xmlns="http://www.w3.org/2000/svg"><path d="m79.203125 245.816406-15.085937 120.695313c-.800782 6.351562 2.277343 12.574219 7.804687 15.796875 5.53125 3.226562 12.449219 2.859375 17.601563-.964844l102.472656-76.023438 102.464844 76.023438c2.824218 2.09375 6.167968 3.152344 9.535156 3.152344 2.757812 0 5.527344-.714844 8.015625-2.152344 5.527343-3.203125 8.625-9.378906 7.871093-15.722656l-15.085937-128.292969 74.511719-74.523437c4.320312-4.316407 5.808594-10.726563 3.824218-16.503907-1.984374-5.78125-7.089843-9.925781-13.152343-10.679687l-118.632813-14.832032-44.496094-111.230468c-2.367187-5.921875-8.03125-9.871094-14.40625-10.046875-6.425781-.25-12.25 3.4375-14.953124 9.222656l-52.296876 112.0625-111.3125 14.839844c-5.894531.785156-10.871093 4.785156-12.910156 10.371093-2.039062 5.582032-.816406 11.847657 3.183594 16.246094zm58.90625-93.457031c5.40625-.722656 10.078125-4.152344 12.382813-9.097656l40.367187-86.503907 34.273437 85.679688c2.167969 5.410156 7.09375 9.210938 12.871094 9.9375l95.535156 11.945312-56.863281 56.863282c-3.464843 3.464844-5.152343 8.320312-4.574219 13.183594l11.671876 99.199218-82.25-61.015625c-2.832032-2.105469-6.183594-3.152343-9.535157-3.152343-3.351562 0-6.703125 1.046874-9.535156 3.152343l-81.945313 60.800781 11.351563-90.871093c.585937-4.632813-.894531-9.296875-4.03125-12.746094l-59.464844-65.414063zm0 0"/><path d="m231.996094 232.496094c8.832031 0 16-7.167969 16-16v-23.929688c0-8.832031-7.167969-16-16-16-8.832032 0-16 7.167969-16 16v23.929688c0 8.839844 7.167968 16 16 16zm0 0"/><path d="m151.996094 232.496094c8.832031 0 16-7.167969 16-16v-24c0-8.832032-7.167969-16-16-16-8.832032 0-16 7.167968-16 16v24c0 8.839844 7.167968 16 16 16zm0 0"/></svg>