<svg height="384pt" viewBox="-24 0 384 384.008" width="384pt" xmlns="http://www.w3.org/2000/svg"><path d="m288.003906 0h-192c-26.472656 0-48 21.527344-48 48v89.808594c-12.480468 3.085937-23.859375 10.023437-32.472656 20.0625-12.28125 14.304687-17.664062 33.289062-14.753906 52.28125l.289062 1.726562c7.910156 51.28125 43.304688 93.679688 86.9375 109.449219v46.679687c0 8.832032 7.167969 16 16 16h144c8.832032 0 16-7.167968 16-16v-54.03125c41.734375-22.601562 72-69.921874 72-121.96875v-144c0-26.472656-21.53125-48.007812-48-48.007812zm-56 352h-112v-24.246094c1.574219.070313 3.132813.246094 4.71875.246094h86.078125c7.195313 0 14.257813-.871094 21.203125-2.289062zm72-160c0 55.398438-43.554687 104-93.203125 104h-86.078125c-43.175781 0-84.457031-39.921875-92.054687-89.191406l-.289063-1.71875c-1.472656-9.546875 1.238282-19.167969 7.4375-26.378906 5.929688-6.902344 14.089844-10.710938 22.992188-10.710938h85.195312v16c0 9.160156-7.136718 16-13.523437 16-8.832031 0-16 7.167969-16 16s7.167969 16 16 16c24.675781 0 45.523437-21.984375 45.523437-48v-32c0-8.832031-7.167968-16-16-16h-84v-88c0-8.824219 7.175782-16 16-16h192c8.824219 0 16 7.175781 16 16zm0 0"/></svg>