<svg height="384pt" viewBox="-24 0 384 384" width="384pt" xmlns="http://www.w3.org/2000/svg"><path d="m313.183594 25.007812c-10.359375-15.664062-27.792969-25.007812-46.625-25.007812h-197.117188c-18.832031 0-36.265625 9.34375-46.59375 24.96875l-3.984375 5.96875c-12.34375 18.421875-18.863281 39.894531-18.863281 62.101562v197.921876c0 22.199218 6.519531 43.679687 18.847656 62.070312l3.96875 5.953125c10.359375 15.664063 27.792969 25.015625 46.625 25.015625h197.117188c18.832031 0 36.265625-9.351562 46.59375-24.96875l3.984375-5.96875c12.34375-18.421875 18.863281-39.894531 18.863281-62.101562v-197.921876c0-22.199218-6.519531-43.679687-18.847656-62.070312zm-106.6875 316.320313c-4.425782 6.679687-11.871094 10.671875-19.9375 10.671875h-37.117188c-8.066406 0-15.511718-3.992188-19.96875-10.71875l-4.015625-6.035156c-7.855469-11.726563-12.199219-25.222656-13.082031-39.246094h111.257812c-.890624 14.023438-5.226562 27.527344-13.105468 39.28125zm-174.496094-77.328125v-144h16c14.089844 0 27.65625 4.015625 39.265625 11.648438 20.496094 13.351562 32.734375 35.910156 32.734375 60.351562 0 39.703125-32.304688 72-72 72zm97.503906-221.335938c4.425782-6.671874 11.871094-10.664062 19.9375-10.664062h37.117188c8.066406 0 15.511718 3.992188 19.96875 10.710938l4.015625 6.03125c7.855469 11.730468 12.199219 25.234374 13.082031 39.257812h-111.257812c.890624-14.023438 5.226562-27.527344 13.105468-39.289062zm174.496094 205.761719-76.945312-56.425781 76.945312-56.425781zm-88-88v-40.425781h55.128906zm-93.128906 103.574219c17.992187-18.703125 29.128906-44.054688 29.128906-72 0-27.289062-10.648438-52.863281-29.078125-72h61.078125v144zm93.128906 0v-40.425781l55.121094 40.425781zm70.527344-221.289062 4.015625 6.03125c7.863281 11.738281 12.417969 25.21875 13.296875 39.257812h-48.03125c-.898438-19.992188-7.054688-39.238281-18.023438-56h28.765625c8.074219 0 15.519531 3.992188 19.976563 10.710938zm-241.054688 6 4.03125-6.046876c4.425782-6.671874 11.871094-10.664062 19.9375-10.664062h28.765625c-10.976562 16.785156-17.128906 36.015625-18.023437 56h-48.023438c.878906-14.039062 5.433594-27.519531 13.3125-39.289062zm4 292.570312-4.015625-6.035156c-7.863281-11.734375-12.417969-25.207032-13.296875-39.246094h48.03125c.898438 20 7.054688 39.238281 18.023438 56h-28.773438c-8.066406 0-15.511718-3.992188-19.96875-10.71875zm241.054688-6-4.03125 6.046875c-4.425782 6.679687-11.871094 10.671875-19.9375 10.671875h-28.765625c10.976562-16.777344 17.128906-36.015625 18.023437-56h48.03125c-.886718 14.039062-5.441406 27.511719-13.320312 39.28125zm0 0"/></svg>