<svg height="384pt" viewBox="0 0 384 384.072" width="384pt" xmlns="http://www.w3.org/2000/svg"><path d="m192.035156 0c-109.457031 0-191.9999998 41.527344-191.9999998 96.601562 0 52.351563 74.6093748 92.4375 175.9999998 96.269532v66.058594c-2.65625-2.960938-5.375-5.890626-8.230468-8.753907-29.71875-30.015625-64.664063-48.671875-91.191407-48.6875-.007812 0-.015625 0-.035156 0-12.390625 0-22.925781 4.007813-30.453125 11.589844-24.097656 24.28125-8.320312 76.859375 36.726562 122.335937 27.472657 27.625 63.046876 48.664063 91.410157 48.65625 6.367187 0 12.300781-1.214843 17.765625-3.496093 5.464844 2.289062 11.402344 3.496093 17.777344 3.496093 28.367187 0 63.953124-21.039062 91.4375-48.679687 45.027343-45.453125 60.808593-98.039063 36.707031-122.3125-7.527344-7.589844-18.058594-11.597656-30.457031-11.597656-.007813 0-.015626 0-.03125 0-26.527344.007812-61.472657 18.664062-91.152344 48.648437-2.878906 2.878906-5.609375 5.832032-8.28125 8.800782v-66.050782c101.394531-3.839844 176-43.917968 176-96.269531.007812-55.082031-82.535156-96.609375-191.992188-96.609375zm-86.472656 312.886719c-35.140625-35.480469-43.75-70.183594-36.726562-77.253907 1.753906-1.769531 5.175781-2.136718 7.742187-2.136718h.011719c14.765625.007812 41.671875 12.136718 68.519531 39.246094 13.253906 13.289062 24.046875 28.136718 30.925781 42.167968v37.019532c-12.550781 1.085937-40.648437-9.058594-70.472656-39.042969zm133.441406-40.191407c26.808594-27.070312 53.710938-39.191406 68.480469-39.199218h.015625c2.566406 0 5.992188.367187 7.742188 2.144531 7.027343 7.070313-1.589844 41.773437-36.703126 77.230469-29.839843 30-57.949218 40.136718-70.496093 39.050781v-37.011719c6.871093-14.039062 17.664062-28.886718 30.960937-42.214844zm-46.96875-111.488281c-94.289062 0-160-34.046875-160-64.605469 0-30.554687 65.710938-64.601562 160-64.601562 94.289063 0 160 34.046875 160 64.601562 0 30.558594-65.710937 64.605469-160 64.605469zm0 0"/><path d="m232.035156 64.550781c-8.832031 0-16 7.167969-16 16v24.113281c0 8.832032 7.167969 16 16 16 8.832032 0 16-7.167968 16-16v-24.113281c0-8.832031-7.167968-16-16-16zm0 0"/><path d="m152.035156 64.480469c-8.832031 0-16 7.167969-16 16v24.183593c0 8.832032 7.167969 16 16 16 8.832032 0 16-7.167968 16-16v-24.183593c0-8.832031-7.167968-16-16-16zm0 0"/></svg>