<svg height="384pt" viewBox="0 -16 384 384" width="384pt" xmlns="http://www.w3.org/2000/svg"><path d="m319.902344 121.769531c.160156-2.449219-.199219-4.921875-1.167969-7.226562.816406-5.789063 1.265625-11.671875 1.265625-17.613281 0-35.433594-14.335938-68.328126-40.359375-92.625-1.375-1.28125-2.96875-2.273438-4.664063-2.992188-.039062-.015625-.082031-.039062-.121093-.066406-.933594-.390625-1.910157-.695313-2.910157-.902344-.035156-.007812-.058593-.015625-.089843-.023438-1.023438-.199218-2.070313-.320312-3.136719-.320312h-.078125c-1.535156 0-2.984375.289062-4.382813.6875-.3125.089844-.617187.175781-.929687.289062-1.367187.488282-2.664063 1.113282-3.832031 1.933594-.054688.042969-.128906.058594-.183594.097656-20.410156 14.648438-44.59375 22.390626-69.953125 22.390626-24.152344 0-47.457031-7.0625-67.390625-20.453126-.898438-.609374-1.847656-1.105468-2.824219-1.511718-.519531-.21875-1.066406-.328125-1.59375-.488282-.453125-.136718-.902343-.3125-1.367187-.410156-.632813-.128906-1.261719-.144531-1.894532-.199218-.394531-.03125-.785156-.113282-1.175781-.113282-.554687 0-1.097656.089844-1.648437.144532-.480469.046874-.960938.046874-1.433594.144531-.445312.089843-.878906.257812-1.320312.375-.550782.152343-1.109376.28125-1.648438.496093-.453125.183594-.871094.449219-1.300781.671876-.488281.25-.992188.457031-1.457031.761718-.808594.527344-1.5625 1.144532-2.273438 1.824219-.070312.0625-.152344.101563-.214844.175781-24.382812 24.007813-37.816406 56.007813-37.816406 90.113282 0 5.941406.449219 11.8125 1.265625 17.613281-.96875 2.304687-1.328125 4.769531-1.167969 7.226562-39.378906 22.46875-64.097656 64.0625-64.097656 110.039063 0 6.070312.433594 12.167968 1.289062 18.128906 3.910157 27.183594 25.445313 43.910156 57.984376 45.382812l56.453124 34.992188c23.167969 14.351562 49.714844 21.527344 76.273438 21.527344 26.542969-.007813 53.105469-7.183594 76.265625-21.535156l56.476563-35.007813c35.554687-1.777344 59.152343-23.578125 59.234374-55.375l.023438-8.113281c0-45.976563-24.71875-87.570313-64.097656-110.039063zm-221.894532-5.707031c-.214843-1.039062-.414062-2.078125-.59375-3.125h63.714844l-16.320312 23.125c-3.71875 5.257812-8.945313 6.457031-11.730469 6.707031-4.789063.40625-9.421875-1.257812-12.78125-4.59375zm187.984376 0-22.289063 22.105469c-3.367187 3.335937-8 4.992187-12.78125 4.59375-2.785156-.25-8.011719-1.449219-11.730469-6.707031l-16.320312-23.125h63.714844c-.179688 1.046874-.378907 2.09375-.59375 3.132812zm-19.839844-79.429688c10.6875 12.832032 17.632812 27.984376 20.398437 44.296876h-189.101562c2.621093-15.410157 9.023437-29.816407 18.765625-42.1875 22.359375 12.1875 47.359375 18.640624 73.144531 18.640624 27.335937.007813 53.609375-7.160156 76.792969-20.75zm85.824218 203.199219c-.054687 21.28125-22.382812 23.574219-31.976562 23.574219-2.976562 0-5.894531.832031-8.433594 2.402344l-60.167968 37.289062c-36.085938 22.375-82.734376 22.375-118.824219 0l-60.160157-37.289062c-2.527343-1.570313-5.453124-2.402344-8.429687-2.402344-18.871094 0-29.3125-6.070312-31.039063-18.039062-.625-4.445313-.945312-9.007813-.945312-13.558594 0-35.921875 20.199219-68.3125 52.0625-84.511719l13.707031 13.589844c10.0625 9.976562 23.972657 15.035156 38.101563 13.753906 14.144531-1.234375 26.921875-8.570313 35.082031-20.128906l21.046875-29.832031 21.054688 29.832031c8.160156 11.550781 20.9375 18.886719 35.082031 20.128906 1.414062.128906 2.832031.183594 4.238281.183594 12.65625 0 24.808594-4.960938 33.855469-13.9375l13.707031-13.589844c31.863281 16.199219 52.0625 48.582031 52.0625 84.464844zm0 0"/><path d="m279.984375 210.023438-39.570313 22.886718c-29.855468 17.28125-66.972656 17.28125-96.828124 0l-39.5625-22.886718c-7.65625-4.429688-17.429688-1.816407-21.863282 5.832031-4.425781 7.648437-1.816406 17.441406 5.832032 21.863281l39.566406 22.890625c19.875 11.496094 42.160156 17.238281 64.449218 17.238281 22.28125 0 44.566407-5.75 64.449219-17.238281l39.566407-22.890625c7.648437-4.429688 10.257812-14.207031 5.832031-21.855469-4.429688-7.65625-14.214844-10.269531-21.871094-5.839843zm0 0"/></svg>