<svg height="384pt" viewBox="0 0 384 384" width="384pt" xmlns="http://www.w3.org/2000/svg"><path d="m64 320c.160156 0 .3125-.023438.472656-.023438 3.984375 35.960938 34.527344 64.023438 71.527344 64.023438 22.335938 0 42.6875-10.441406 56-26.902344 13.3125 16.460938 33.664062 26.902344 56 26.902344 37 0 67.542969-28.0625 71.527344-64.023438.160156 0 .3125.023438.472656.023438 35.289062 0 64-28.710938 64-64 0-2.375-.183594-4.710938-.457031-7.023438.015625-.328124.097656-.640624.097656-.976562 0-6.351562-3.921875-11.792969-9.382813-14.375-.226562-.113281-.433593-.257812-.664062-.351562-.105469-.042969-.21875-.066407-.320312-.105469-1.859376-.753907-3.859376-1.167969-5.929688-1.160157-.023438 0-.039062-.007812-.054688-.007812h-99.074218c2.441406-7.734375 3.785156-15.824219 3.785156-24 0-1.273438-.128906-2.503906-.191406-3.761719 7.640625 2.433594 15.757812 3.761719 24.191406 3.761719 44.113281 0 80-35.886719 80-80s-35.886719-80-80-80-80 35.886719-80 80c0 1.273438.128906 2.503906.191406 3.761719-7.640625-2.433594-15.757812-3.761719-24.191406-3.761719s-16.550781 1.328125-24.191406 3.761719c.0625-1.25.191406-2.488281.191406-3.761719 0-44.113281-35.886719-80-80-80s-80 35.886719-80 80 35.886719 80 80 80c8.433594 0 16.550781-1.328125 24.191406-3.761719-.0625 1.257813-.191406 2.496094-.191406 3.761719 0 8.183594 1.335938 16.28125 3.769531 24h-99.210937c-.085938 0-.167969 0-.253906 0h-.304688c-8.832031 0-15.640625 7.167969-15.640625 16 0 .320312.082031.625.097656.9375-.273437 2.328125-.457031 4.671875-.457031 7.0625 0 35.296875 28.710938 64 64 64zm256-32c-3.945312 0-7.734375-.703125-11.246094-2.089844-.355468-.140625-.707031-.261718-1.066406-.382812-.167969-.054688-.351562-.03125-.519531-.078125-1.238281-.34375-2.511719-.585938-3.832031-.617188-.230469-.007812-.464844-.113281-.695313-.113281-8.832031 0-16 7.167969-16 16 0 1.328125.3125 2.570312.617187 3.808594.453126 2.496094.742188 5 .742188 7.472656 0 22.054688-17.945312 40-40 40-19.777344 0-36.769531-14.71875-39.511719-34.230469-.023437-.167969-.089843-.3125-.121093-.472656-.09375-.578125-.253907-1.121094-.414063-1.671875-.136719-.472656-.257813-.945312-.433594-1.394531-.207031-.527344-.457031-1.015625-.710937-1.511719-.222656-.429688-.433594-.863281-.6875-1.269531-.296875-.464844-.640625-.898438-.984375-1.328125-.296875-.367188-.578125-.753906-.90625-1.089844-.382813-.398438-.796875-.75-1.222657-1.109375-.359374-.3125-.703124-.625-1.097656-.90625-.429687-.3125-.886718-.558594-1.351562-.824219-.4375-.253906-.871094-.511718-1.335938-.726562-.429687-.199219-.886718-.34375-1.335937-.496094-.542969-.191406-1.085938-.382812-1.664063-.511719-.414062-.097656-.839844-.144531-1.261718-.199219-.632813-.097656-1.257813-.179687-1.90625-.195312-.144532 0-.277344-.039062-.421876-.039062h-1.28125c-.160156 0-.3125.039062-.472656.046874-.558594.019532-1.109375.089844-1.664062.167969-.519532.074219-1.039063.128907-1.542969.25-.449219.105469-.878906.265625-1.3125.40625-.574219.195313-1.144531.378907-1.6875.632813-.34375.160156-.664063.359375-.992187.542968-.574219.320313-1.144532.640626-1.671876 1.027344-.296874.214844-.558593.460938-.839843.695313-.503907.414062-.992188.839843-1.441407 1.3125-.277343.292969-.519531.621093-.773437.933593-.386719.472657-.761719.945313-1.089844 1.464844-.238281.382813-.4375.792969-.648437 1.191406-.261719.511719-.535156 1.023438-.742188 1.570313-.175781.445313-.296875.910156-.425781 1.375-.160156.550781-.3125 1.101563-.414063 1.6875-.03125.160156-.097656.3125-.121093.472656-2.75 19.511719-19.742188 34.230469-39.511719 34.230469-22.054688 0-40-17.941406-40-40 0-2.472656.289062-4.984375.742188-7.472656.304687-1.230469.617187-2.480469.617187-3.804688 0-8.832031-7.167969-16-16-16-.230469 0-.464844.101563-.695313.109375-1.335937.03125-2.625.273438-3.871093.625-.152344.046875-.3125.023438-.457031.070313-.359376.113281-.71875.242187-1.078126.386718-3.515624 1.382813-7.304687 2.085938-11.25 2.085938-14.871093 0-27.289062-10.230469-30.863281-24h101.785157c2.453124 2.511719 5.0625 4.914062 7.917968 7.128906.230469.183594.488282.351563.738282.519532.0625.046874.125.097656.191406.136718.039062.03125.078125.0625.125.085938 13.976562 10.554687 30.578125 16.128906 48.105468 16.128906 17.511719 0 34.113282-5.558594 48.089844-16.109375.070313-.050781.132813-.097656.199219-.144531 0 0 .007813-.007813.007813-.007813.296874-.203125.582031-.402343.863281-.617187 2.871093-2.222656 5.488281-4.632813 7.929687-7.128906h101.78125c-3.589844 13.746093-16.007812 23.976562-30.878906 23.976562zm-24-208c26.472656 0 48 21.527344 48 48 0 20.855469-13.382812 38.59375-32 45.199219v-45.199219c0-8.832031-7.167969-16-16-16s-16 7.167969-16 16v45.199219c-18.617188-6.605469-32-24.34375-32-45.199219 0-26.464844 21.527344-48 48-48zm-56 128c0 11.007812-3.648438 21.382812-10.726562 30.199219-1.929688 2.488281-4.25 4.832031-6.898438 6.984375-.039062.023437-.078125.054687-.117188.089844-.28125.183593-.554687.375-.808593.582031-17.035157 13.265625-41.855469 13.265625-58.890625 0-.292969-.230469-.589844-.457031-.902344-.65625-2.664062-2.160157-5-4.519531-7.097656-7.214844-6.910156-8.601563-10.558594-18.976563-10.558594-29.984375 0-26.472656 21.527344-48 48-48s48 21.535156 48 48zm-200-80c0-26.472656 21.527344-48 48-48s48 21.527344 48 48c0 20.855469-13.382812 38.59375-32 45.199219v-45.199219c0-8.832031-7.167969-16-16-16s-16 7.167969-16 16v45.199219c-18.617188-6.605469-32-24.34375-32-45.199219zm0 0"/><path d="m32 0c-8.832031 0-16 7.167969-16 16s7.167969 16 16 16h104c8.832031 0 16-7.167969 16-16s-7.167969-16-16-16zm0 0"/><path d="m248 32h104c8.832031 0 16-7.167969 16-16s-7.167969-16-16-16h-104c-8.832031 0-16 7.167969-16 16s7.167969 16 16 16zm0 0"/></svg>