<svg height="384pt" viewBox="0 -24 384 384" width="384pt" xmlns="http://www.w3.org/2000/svg"><path d="m232 176.070312c-8.832031 0-16 7.167969-16 16v24.105469c0 8.832031 7.167969 16 16 16s16-7.167969 16-16v-24.105469c0-8.832031-7.167969-16-16-16zm0 0"/><path d="m152 176c-8.832031 0-16 7.167969-16 16v24.175781c0 8.832031 7.167969 16 16 16s16-7.167969 16-16v-24.175781c0-8.832031-7.167969-16-16-16zm0 0"/><path d="m369.59375 71.152344c-.035156-.082032-.066406-.160156-.097656-.242188-.152344-.375-.382813-.695312-.566406-1.046875-.273438-.535156-.523438-1.078125-.859376-1.589843-.390624-.609376-.863281-1.136719-1.328124-1.671876-.199219-.234374-.34375-.488281-.558594-.714843-.023438-.023438-.054688-.046875-.085938-.070313-.585937-.59375-1.234375-1.097656-1.890625-1.59375-.191406-.144531-.359375-.320312-.558593-.453125-.65625-.441406-1.359376-.785156-2.0625-1.128906-.234376-.113281-.441407-.265625-.675782-.359375-.820312-.34375-1.679687-.59375-2.550781-.792969-.128906-.03125-.246094-.089843-.375-.113281-.871094-.183594-1.761719-.253906-2.65625-.296875-.136719-.007813-.265625-.039063-.398437-.039063-.578126-.007812-1.160157.089844-1.746094.144532-.464844.039062-.925782.039062-1.382813.128906-.375.070312-.746093.214844-1.113281.3125-.664062.167969-1.320312.335938-1.960938.589844-.046874.015625-.09375.023437-.140624.042968-.363282.148438-.664063.367188-1 .535157-.5625.277343-1.128907.542969-1.65625.886719-.539063.351562-1 .769531-1.480469 1.175781-.289063.25-.609375.433593-.882813.703125-14.878906 14.472656-34.605468 22.441406-55.566406 22.441406-46.351562 0-80-30.28125-80-72 0-8.832031-7.167969-16-16-16s-16 7.167969-16 16c0 41.71875-33.648438 72-80 72-20.960938 0-40.6875-7.96875-55.558594-22.433594-.304687-.292968-.648437-.503906-.96875-.765625-.449218-.375-.871094-.761719-1.367187-1.089843-.601563-.398438-1.234375-.695313-1.867188-1.007813-.277343-.136719-.519531-.3125-.804687-.429687-.042969-.015626-.082032-.027344-.121094-.042969-.695312-.277344-1.417969-.46875-2.144531-.644531-.3125-.082032-.625-.210938-.945313-.265626-.542968-.105468-1.09375-.113281-1.648437-.152343-.496094-.039063-.980469-.128907-1.476563-.121094-.363281.007813-.722656.082031-1.089844.113281-.65625.054688-1.320312.078125-1.96875.214844-.40625.082031-.800781.25-1.199218.367188-.574219.167968-1.167969.304687-1.71875.539062-.402344.167969-.761719.40625-1.144532.605469-.542968.28125-1.097656.527343-1.601562.875-.285156.191406-.535156.4375-.808594.652343-.566406.441407-1.140625.875-1.644531 1.386719-.035156.03125-.082031.054688-.113281.09375-.25.257813-.425782.554688-.648438.816407-.433594.503906-.863281.992187-1.230468 1.554687-.328126.496094-.570313 1.023437-.839844 1.542969-.195313.367187-.425782.695312-.585938 1.085937-.039062.097657-.070312.195313-.113281.28125-.015625.039063-.03125.082031-.046875.121094-9.503906 23-14.34375 47.457031-14.34375 72.703125 0 105.863281 86.136719 192 192 192s192-86.136719 192-192c0-25.160156-4.839844-49.609375-14.34375-72.6875-.023438-.054688-.039062-.105469-.0625-.160156zm-177.59375 232.847656c-88.222656 0-160-71.777344-160-160 0-13.894531 1.929688-27.449219 5.390625-40.59375 17.441406 10.753906 37.570313 16.59375 58.609375 16.59375 41.800781 0 76.761719-19.230469 96-49.105469 19.238281 29.875 54.199219 49.105469 96 49.105469 21.039062 0 41.160156-5.839844 58.59375-16.585938 3.476562 13.179688 5.40625 26.730469 5.40625 40.585938 0 88.222656-71.777344 160-160 160zm0 0"/></svg>