<svg height="384pt" viewBox="0 -48 384 384" width="384pt" xmlns="http://www.w3.org/2000/svg"><path d="m238.992188 0h-222.992188c-8.832031 0-16 7.167969-16 16v256c0 8.832031 7.167969 16 16 16h222.992188c79.960937 0 145.007812-64.601562 145.007812-144s-65.046875-144-145.007812-144zm-43.070313 99.910156c2.542969 1.496094 5.324219 2.203125 8.078125 2.203125 5.496094 0 10.839844-2.832031 13.816406-7.914062l7.214844-12.304688 40.585938 24.875c-12.183594 15.0625-29.839844 24.09375-48.808594 24.09375-35.738282 0-64.808594-31.320312-64.808594-69.816406 0-7.496094 1.230469-14.832031 3.398438-21.832031l42.34375 25.953125-7.527344 12.839843c-4.472656 7.632813-1.910156 17.433594 5.707031 21.902344zm-163.921875-67.910156h24v224h-24zm206.992188 224h-150.992188v-224h36.070312c-2.664062 9.367188-4.070312 19.144531-4.070312 29.054688 0 56.144531 43.433594 101.816406 96.808594 101.816406 35.816406 0 68.550781-20.648438 85.457031-53.886719.148437-.296875.222656-.609375.351563-.914063.222656-.511718.429687-1.015624.597656-1.535156.160156-.496094.273437-.992187.386718-1.496094.109376-.519531.207032-1.03125.261719-1.550781.058594-.519531.082031-1.039062.082031-1.558593.007813-.515626 0-1.007813-.042968-1.515626-.039063-.519531-.117188-1.03125-.214844-1.542968-.085938-.496094-.191406-.984375-.328125-1.472656-.144531-.496094-.3125-.972657-.496094-1.453126-.183593-.480468-.375-.945312-.605469-1.402343-.234374-.464844-.496093-.894531-.769531-1.335938-.273437-.429687-.550781-.855469-.871093-1.261719-.328126-.417968-.679688-.808593-1.050782-1.203124-.351562-.367188-.703125-.726563-1.09375-1.0625-.417968-.359376-.863281-.6875-1.328125-1.007813-.265625-.183594-.488281-.414063-.769531-.582031l-91.535156-56.089844h34.144531c62.320313 0 113.015625 50.238281 113.015625 112s-50.695312 112-113.007812 112zm0 0"/></svg>