<svg height="384pt" viewBox="0 -8 384.0023 384" width="384pt" xmlns="http://www.w3.org/2000/svg"><path d="m375.675781 89.347656-145.351562-79.496094c-24-13.132812-52.664063-13.132812-76.65625 0l-145.34375 79.496094c-7.75 4.242188-10.597657 13.96875-6.359375 21.714844 4.25 7.75 13.976562 10.605469 21.710937 6.359375l8.320313-4.550781v110.839844c0 24.957031 12.722656 46.988281 32 59.941406v68.402344c0 8.832031 7.167968 16 16 16 8.832031 0 16-7.167969 16-16v-56.664063c2.632812.292969 5.296875.46875 8 .46875h16v56.195313c0 8.832031 7.167968 16 16 16 8.832031 0 16-7.167969 16-16v-56.195313h24v56.195313c0 8.832031 7.167968 16 16 16 8.832031 0 16-7.167969 16-16v-56.195313h24v56.195313c0 8.832031 7.167968 16 16 16 8.832031 0 16-7.167969 16-16v-56.195313h24v56.195313c0 8.832031 7.167968 16 16 16 8.832031 0 16-7.167969 16-16v-64.875c19.097656-11.109376 32-31.773438 32-55.445313v-118.855469l8.320312 4.550782c2.441406 1.335937 5.074219 1.96875 7.664063 1.96875 5.664062 0 11.152343-3.007813 14.058593-8.328126 4.238282-7.761718 1.390626-17.480468-6.363281-21.722656zm-87.679687 174.511719h-184c-22.054688 0-40-18.007813-40-40.148437v-32.335938c38.96875 14.652344 102.722656 16.246094 128 16.246094 25.273437 0 89.03125-1.59375 128-16.246094v40.359375c0 17.710937-14.351563 32.125-32 32.125zm-9.558594-113.703125c16.359375 2.898438 28.328125 6.320312 35.519531 9.375-7.191406 3.058594-19.160156 6.480469-35.519531 9.378906.917969-2.976562 1.558594-6.089844 1.558594-9.367187 0-3.28125-.640625-6.402344-1.558594-9.386719zm-58.304688 24.824219c-8.863281.402343-18.207031.648437-28.136718.648437-9.925782 0-19.269532-.238281-28.136719-.648437 2.554687-4.597657 4.136719-9.816407 4.136719-15.4375 0-5.625-1.582032-10.84375-4.136719-15.441407 8.867187-.402343 18.210937-.648437 28.136719-.648437 9.929687 0 19.273437.238281 28.136718.648437-2.550781 4.589844-4.136718 9.808594-4.136718 15.441407 0 5.628906 1.585937 10.839843 4.136718 15.4375zm-114.574218-6.0625c-16.363282-2.898438-28.328125-6.320313-35.519532-9.375 7.191407-3.058594 19.148438-6.480469 35.519532-9.378907-.921875 2.976563-1.5625 6.089844-1.5625 9.378907 0 3.285156.640625 6.390625 1.5625 9.375zm214.4375-41.21875c-38.96875-14.652344-102.726563-16.246094-128-16.246094-25.277344 0-89.03125 1.59375-128 16.246094v-32.324219l105.023437-57.441406c14.394531-7.871094 31.570313-7.863282 45.945313 0l105.03125 57.441406zm0 0"/></svg>