<svg height="384pt" viewBox="0 0 384.14401 384" width="384pt" xmlns="http://www.w3.org/2000/svg"><path d="m232.070312 224.597656c8.832032 0 16-7.167968 16-16v-23.925781c0-8.832031-7.167968-16-16-16-8.832031 0-16 7.167969-16 16v23.925781c0 8.839844 7.167969 16 16 16zm0 0"/><path d="m152.070312 224.597656c8.832032 0 16-7.167968 16-16v-24c0-8.832031-7.167968-16-16-16-8.832031 0-16 7.167969-16 16v24c0 8.839844 7.167969 16 16 16zm0 0"/><path d="m280.070312 280.597656h-16v-8c0-8.832031-7.167968-16-16-16-8.832031 0-16 7.167969-16 16v8h-80.054687l-.09375-8.792968c-.097656-8.773438-7.242187-15.824219-16-15.824219-.058594 0-.121094 0-.179687 0-8.832032.097656-15.917969 7.335937-15.820313 16.179687l.09375 8.4375h-15.945313c-8.832031 0-16 7.167969-16 16 0 8.832032 7.167969 16 16 16h176c8.832032 0 16-7.167968 16-16 0-8.832031-7.167968-16-16-16zm0 0"/><path d="m289.863281 110.75 25.777344-14.144531h28.429687c8.832032 0 16-7.167969 16-16s-7.167968-16-16-16h-32.535156c-2.6875 0-5.335937.679687-7.695312 1.976562l-30.214844 16.585938-32.535156-55.265625c-10.554688-17.929688-29.867188-28.472656-50.800782-27.800782-19.703124.585938-37.265624 10.878907-47.21875 27.800782l-31.253906 53.089844-23.503906-14.105469c-2.488281-1.496094-5.335938-2.28125-8.234375-2.28125h-40c-8.832031 0-16 7.167969-16 16s7.167969 16 16 16h35.570313l19.9375 11.960937-82.28125 139.71875c-8.863282 15.058594-13.3125005 31.042969-13.304688 46.792969 0 14.449219 3.753906 28.695313 11.257812 41.839844 16.878907 29.527343 49.125 47.152343 86.269532 47.152343h189.089844c37.144531 0 69.390624-17.625 86.269531-47.152343 7.503906-13.144531 11.257812-27.390625 11.257812-41.839844 0-15.75-4.441406-31.734375-13.304687-46.792969zm55.242188 210.289062c-11.105469 19.429688-32.976563 31.03125-58.488281 31.03125h-189.089844c-25.511719 0-47.382813-11.601562-58.496094-31.03125-4.625-8.089843-6.925781-16.921874-6.925781-25.953124 0-10.191407 2.925781-20.648438 8.765625-30.558594l82.136718-139.496094 28.832032 17.296875c2.574218 1.542969 5.417968 2.285156 8.214844 2.285156 5.441406 0 10.738281-2.773437 13.738281-7.773437 4.542969-7.578125 2.085937-17.402344-5.488281-21.953125l-29.058594-17.433594 31.394531-53.320313c4.449219-7.558593 12.457031-12.0625 21.429687-12.0625 8.976563 0 16.984376 4.503907 21.433594 12.054688l32.046875 54.433594-29.175781 16.015625c-7.742188 4.257812-10.574219 13.976562-6.328125 21.726562 2.914063 5.304688 8.394531 8.304688 14.042969 8.304688 2.597656 0 5.238281-.640625 7.679687-1.976563l30.023438-16.480468 81.472656 138.371093c5.839844 9.917969 8.773437 20.367188 8.765625 30.558594 0 9.039063-2.304688 17.871094-6.925781 25.960937zm0 0"/></svg>