<svg height="384pt" viewBox="0 -8 384 384" width="384pt" xmlns="http://www.w3.org/2000/svg"><path d="m144 208c0 8.832031 7.167969 16 16 16h64c8.832031 0 16-7.167969 16-16v-64c0-8.832031-7.167969-16-16-16h-64c-8.832031 0-16 7.167969-16 16zm32-48h32v32h-32zm0 0"/><path d="m359.816406 136.894531-31.816406-18.175781v-15.4375c0-.097656-.023438-.183594-.023438-.273438-.007812-.59375-.105468-1.175781-.175781-1.769531-.058593-.460937-.082031-.925781-.183593-1.375-.113282-.496093-.296876-.976562-.457032-1.464843-.160156-.503907-.289062-1.015626-.503906-1.496094-.183594-.414063-.441406-.804688-.65625-1.207032-.28125-.511718-.527344-1.03125-.855469-1.503906-.234375-.335937-.527343-.632812-.792969-.960937-.40625-.503907-.808593-1.007813-1.273437-1.453125-.0625-.058594-.101563-.128906-.167969-.191406-23.628906-22.066407-52.078125-37.632813-82.910156-45.507813v-30.078125c0-8.832031-7.167969-16-16-16h-64c-8.832031 0-16 7.167969-16 16v30.078125c-30.832031 7.875-59.28125 23.441406-82.910156 45.507813-.066406.054687-.105469.125-.167969.191406-.464844.445312-.867187.949218-1.273437 1.453125-.265626.320312-.558594.625-.792969.960937-.328125.472656-.582031 1-.855469 1.503906-.214844.410157-.472656.792969-.65625 1.207032-.207031.480468-.335938.992187-.503906 1.496094-.160156.488281-.34375.960937-.457032 1.464843-.09375.449219-.117187.921875-.183593 1.375-.078125.59375-.167969 1.175781-.175781 1.769531 0 .097657-.023438.183594-.023438.273438v15.429688l-31.816406 18.175781c-14.917969 8.539062-24.183594 24.503906-24.183594 41.679687v14.714844c0 14.023438 6.113281 27.304688 16.761719 36.445312l36.167969 31c-3.167969 8.6875-4.929688 17.90625-4.929688 27.273438 0 44.113281 35.886719 80 80 80 25.878906 0 49.265625-12.183594 64-31.921875 14.734375 19.738281 38.121094 31.921875 64 31.921875 44.113281 0 80-35.886719 80-80 0-9.367188-1.761719-18.585938-4.929688-27.273438l36.167969-31c10.648438-9.125 16.761719-22.40625 16.761719-36.445312v-14.714844c0-17.175781-9.265625-33.140625-24.183594-41.671875zm-183.816406-104.894531h32v40h-32zm-16 72h64c8.832031 0 16-7.167969 16-16v-8.585938c20.472656 6.394532 39.480469 16.960938 56 31.136719v132.554688c-3.472656-.90625-7-1.601563-10.558594-2.105469-.699218-.097656-1.394531-.167969-2.089844-.246094-3.757812-.449218-7.542968-.753906-11.351562-.753906-6.601562 0-12.894531.503906-18.558594 1.496094-.128906.023437-.25.0625-.378906.089844-.238281.046874-.46875.101562-.703125.15625-25.832031 4.457031-46.917969 17.347656-60.351563 35.9375-13.472656-18.671876-34.640624-31.589844-60.496093-35.984376-.160157-.03125-.3125-.070312-.472657-.101562-.109374-.019531-.207031-.058594-.320312-.074219-5.824219-1.015625-12.117188-1.519531-18.71875-1.519531-8.144531 0-16.199219 1.097656-24 3.121094v-132.570313c16.519531-14.183593 35.527344-24.742187 56-31.136719v8.585938c0 8.832031 7.167969 16 16 16zm-128 89.28125v-14.714844c0-5.726562 3.097656-11.046875 8.0625-13.894531l15.9375-9.105469v65.640625l-18.414062-15.773437c-3.546876-3.042969-5.585938-7.472656-5.585938-12.152344zm96 142.71875c-26.472656 0-48-21.527344-48-48 0-2.601562.289062-5.160156.695312-7.695312 9.488282-5.410157 20.289063-8.304688 31.304688-8.304688v32c0 8.832031 7.167969 16 16 16s16-7.167969 16-16v-25.265625c13.128906 6.050781 22.910156 15.898437 27.921875 28.304687-7.464844 17.464844-24.464844 28.960938-43.921875 28.960938zm128 0c-19.414062 0-36.503906-11.382812-43.992188-28.785156.207032-.519532.367188-1.054688.59375-1.566406.445313-1.015626.941407-1.992188 1.453126-2.96875.640624-1.230469 1.320312-2.433594 2.066406-3.601563.589844-.933594 1.214844-1.847656 1.871094-2.742187.816406-1.113282 1.679687-2.191407 2.59375-3.238282.726562-.839844 1.46875-1.671875 2.253906-2.472656.992187-1 2.039062-1.953125 3.121094-2.890625.847656-.726563 1.679687-1.460937 2.582031-2.148437 1.167969-.898438 2.417969-1.722657 3.671875-2.53125.9375-.605469 1.847656-1.230469 2.824218-1.789063 1.375-.792969 2.839844-1.480469 4.304688-2.175781.214844-.105469.441406-.210938.65625-.3125v25.222656c0 8.832031 7.167969 16 16 16s16-7.167969 16-16v-32c2.785156 0 5.558594.183594 8.304688.550781.925781.121094 1.832031.378907 2.75.546875 1.800781.316406 3.601562.597656 5.359374 1.070313 1.097657.289062 2.136719.726562 3.21875 1.078125 1.542969.507812 3.101563.953125 4.597657 1.578125 1.089843.449219 2.113281 1.039062 3.175781 1.542969 1.335938.640624 2.699219 1.25 3.984375 1.984374.402344 2.503907.609375 5.074219.609375 7.648438 0 26.472656-21.527344 48-48 48zm96-142.71875c0 4.679688-2.03125 9.109375-5.585938 12.152344l-18.414062 15.78125v-65.640625l15.9375 9.105469c4.964844 2.839843 8.0625 8.160156 8.0625 13.886718zm0 0"/></svg>