<svg height="384pt" viewBox="0 -8 384 384" width="384pt" xmlns="http://www.w3.org/2000/svg"><path d="m368 48h-72c-8.832031 0-16 7.167969-16 16v32h-72v-80c0-8.832031-7.167969-16-16-16s-16 7.167969-16 16v80h-72v-32c0-8.832031-7.167969-16-16-16h-72c-8.832031 0-16 7.167969-16 16v288c0 8.832031 7.167969 16 16 16h72c8.832031 0 16-7.167969 16-16v-16h176v16c0 8.832031 7.167969 16 16 16h72c8.832031 0 16-7.167969 16-16v-288c0-8.832031-7.167969-16-16-16zm-296 288h-40v-256h40zm32-32v-176h72v26.359375c-23.105469 6.90625-40 28.328125-40 53.640625 0 30.871094 25.121094 56 56 56 30.871094 0 56-25.128906 56-56 0-25.3125-16.894531-46.734375-40-53.640625v-26.359375h72v176zm88-120c13.230469 0 24 10.769531 24 24s-10.769531 24-24 24-24-10.769531-24-24 10.769531-24 24-24zm160 152h-40v-256h40zm0 0"/></svg>